#N canvas 4150 -277 762 610 10;
#X obj 168 295 oscformat /world/clear;
#X obj 117 278 s osc;
#X obj 1592 447 bng 15 250 50 0 empty empty empty 0 -6 0 8 -262144
-1 -1;
#X floatatom 1429 427 5 0 0 0 - - -;
#X text 1427 455 move to create marbles;
#X text 1426 333 MarbleBox;
#X floatatom 117 164 5 0 500 0 - - -;
#N canvas 5 46 454 304 (subpatch) 0;
#X array accel 1000 float 0;
#X coords 0 30 1000 0 200 140 1 0 0;
#X restore 1750 356 graph;
#N canvas 457 76 771 745 createbox 0;
#X obj 34 18 inlet;
#X obj 34 130 / 2;
#X obj 34 165 -;
#X floatatom 34 195 5 0 0 0 - - -;
#X obj 70 130 / 2;
#X obj 70 165 -;
#X floatatom 70 195 5 0 0 0 - - -;
#X floatatom 178 195 5 0 0 0 - - -;
#X obj 34 98 unpack 0 0 0 0 0;
#X obj 106 130 / 2;
#X obj 106 165 +;
#X floatatom 106 195 5 0 0 0 - - -;
#X obj 142 129 / 2;
#X obj 142 165 +;
#X floatatom 142 195 5 0 0 0 - - -;
#X obj 178 128 / 2;
#X obj 10 98 bng 15 250 50 0 empty empty empty 17 7 0 10 -262144 -1
-1;
#X obj 10 257 pack 0 0 0 0 0 0 0 0 0 0 0 0 0;
#X obj 10 281 t l l l;
#X obj 293 360 s osc;
#X obj 34 46 bng 15 250 50 0 empty empty empty 17 7 0 10 -262144 -1
-1;
#X text 57 43 bang to create box;
#X msg 34 70 0.4 0.4 0.2 0.03 0.03;
#N canvas 660 467 709 379 texture 0;
#X obj 40 223 s osc;
#X obj 40 3 inlet;
#X obj 40 53 getdir;
#X obj 40 33 bng 15 250 50 0 empty empty empty 17 7 0 10 -262144 -1
-1;
#X obj 40 97 t s s s s s;
#X msg 40 75 symbol \$1/marble.tga;
#X msg 172 75 symbol \$1/bw1.tga;
#X msg 287 75 symbol \$1/bw2.tga;
#X msg 84 53 symbol ../textures;
#X obj 40 118 oscformat /world/leftside/texture/image;
#X obj 40 139 oscformat /world/rightside/texture/image;
#X obj 40 160 oscformat /world/backside/texture/image;
#X obj 40 181 oscformat /world/frontside/texture/image;
#X obj 40 202 oscformat /world/bottom/texture/image;
#X connect 1 0 3 0;
#X connect 2 0 5 0;
#X connect 3 0 8 0;
#X connect 3 0 2 0;
#X connect 4 0 13 0;
#X connect 4 1 12 0;
#X connect 4 2 11 0;
#X connect 4 3 10 0;
#X connect 4 4 9 0;
#X connect 5 0 4 0;
#X connect 8 0 6 0;
#X connect 8 0 7 0;
#X connect 8 0 5 0;
#X connect 9 0 0 0;
#X connect 10 0 0 0;
#X connect 11 0 0 0;
#X connect 12 0 0 0;
#X connect 13 0 0 0;
#X restore 69 282 pd texture;
#X obj 113 222 -;
#X obj 145 221 -;
#X obj 180 221 -;
#X floatatom 265 171 5 0 0 0 - - -;
#X msg 265 142 0.2;
#X obj 265 115 loadbang;
#X obj 70 219 * -1;
#X obj 34 219 * -1;
#X obj 288 465 oscformat /world/fixed/create;
#X obj 288 488 s osc;
#X msg 10 566 \$5 \$2 \$12;
#X msg 10 587 \$12 \$2 \$8;
#X msg 10 608 \$12 \$2 \$8;
#X msg 10 629 \$5 \$12 \$8;
#X msg 10 650 \$5 \$12 \$10;
#X obj 92 673 s osc;
#X obj 92 566 oscformat /world/bottom/size;
#X obj 92 587 oscformat /world/leftside/size;
#X obj 92 608 oscformat /world/rightside/size;
#X obj 92 629 oscformat /world/backside/size;
#X obj 92 650 oscformat /world/frontside/size;
#X msg 47 305 list leftside \$7 0 \$9;
#X obj 293 337 oscformat /world/prism/create;
#X msg 47 326 list rightside \$6 0 \$9;
#X msg 47 347 list backside 0 \$4 \$9;
#X msg 47 368 list frontside 0 \$3 \$11;
#X msg 47 389 list bottom 0 0 \$13;
#X msg 28 435 list fix1 leftside world;
#X msg 28 456 list fix2 rightside world;
#X msg 28 477 list fix3 backside world;
#X msg 28 498 list fix4 frontside world;
#X msg 28 520 list boxhinge bottom world;
#X connect 0 0 20 0;
#X connect 1 0 2 0;
#X connect 2 0 3 0;
#X connect 3 0 31 0;
#X connect 3 0 17 3;
#X connect 4 0 5 0;
#X connect 5 0 6 0;
#X connect 6 0 17 5;
#X connect 6 0 30 0;
#X connect 7 0 26 0;
#X connect 8 0 1 0;
#X connect 8 0 17 1;
#X connect 8 1 4 0;
#X connect 8 1 17 4;
#X connect 8 2 9 0;
#X connect 8 2 17 7;
#X connect 8 3 12 0;
#X connect 8 3 17 9;
#X connect 8 4 15 0;
#X connect 8 4 17 11;
#X connect 9 0 10 0;
#X connect 10 0 11 0;
#X connect 11 0 24 0;
#X connect 12 0 13 0;
#X connect 13 0 14 0;
#X connect 14 0 25 0;
#X connect 15 0 13 1;
#X connect 15 0 10 1;
#X connect 15 0 5 1;
#X connect 15 0 2 1;
#X connect 15 0 7 0;
#X connect 16 0 17 0;
#X connect 17 0 18 0;
#X connect 18 0 34 0;
#X connect 18 0 35 0;
#X connect 18 0 36 0;
#X connect 18 0 37 0;
#X connect 18 0 38 0;
#X connect 18 1 51 0;
#X connect 18 1 52 0;
#X connect 18 1 53 0;
#X connect 18 1 54 0;
#X connect 18 1 55 0;
#X connect 18 1 23 0;
#X connect 18 2 45 0;
#X connect 18 2 47 0;
#X connect 18 2 48 0;
#X connect 18 2 49 0;
#X connect 18 2 50 0;
#X connect 20 0 22 0;
#X connect 22 0 8 0;
#X connect 22 0 16 0;
#X connect 24 0 17 8;
#X connect 25 0 17 10;
#X connect 26 0 17 12;
#X connect 27 0 24 1;
#X connect 27 0 25 1;
#X connect 27 0 26 1;
#X connect 28 0 27 0;
#X connect 29 0 28 0;
#X connect 30 0 17 6;
#X connect 31 0 17 2;
#X connect 32 0 33 0;
#X connect 34 0 40 0;
#X connect 35 0 41 0;
#X connect 36 0 42 0;
#X connect 37 0 43 0;
#X connect 38 0 44 0;
#X connect 40 0 39 0;
#X connect 41 0 39 0;
#X connect 42 0 39 0;
#X connect 43 0 39 0;
#X connect 44 0 39 0;
#X connect 45 0 46 0;
#X connect 46 0 19 0;
#X connect 47 0 46 0;
#X connect 48 0 46 0;
#X connect 49 0 46 0;
#X connect 50 0 46 0;
#X connect 51 0 32 0;
#X connect 52 0 32 0;
#X connect 53 0 32 0;
#X connect 54 0 32 0;
#X connect 55 0 32 0;
#X restore 1427 401 pd createbox;
#X obj 1427 374 bng 15 250 50 0 empty empty empty 17 7 0 10 -262144
-1 -1;
#X text 1450 375 bang to create box;
#N canvas 90 228 705 515 createmarble 0;
#X obj 393 365 s osc;
#X floatatom 29 52 5 0 0 0 - - -;
#X obj 55 25 + 1;
#X obj 28 100 t l l;
#X obj 29 26 f;
#X obj 28 77 pack 0 0 0;
#X obj 29 -3 inlet;
#X obj 88 -1 inlet;
#X obj 4 29 bng 15 250 50 0 empty empty empty 17 7 0 10 -262144 -1
-1;
#X obj 194 -1 % 8;
#N canvas 660 564 366 247 texture 0;
#X obj 27 63 makefilename /world/%ds/texture/image;
#X obj 150 105 getdir;
#X obj 150 86 bng 15 250 50 0 empty empty empty 17 7 0 10 -262144 -1
-1;
#X msg 27 181 \$1 \$2;
#X obj 27 155 pack s s;
#X obj 27 35 inlet;
#X obj 27 213 outlet;
#X obj 148 37 inlet;
#X msg 194 104 symbol ../textures;
#X obj 150 126 makefilename %s/grainy.tga;
#X connect 0 0 4 0;
#X connect 1 0 9 0;
#X connect 2 0 1 0;
#X connect 2 0 8 0;
#X connect 3 0 6 0;
#X connect 4 0 3 0;
#X connect 5 0 0 0;
#X connect 7 0 2 0;
#X connect 8 0 9 0;
#X connect 9 0 4 1;
#X restore 331 117 pd texture;
#X obj 145 171 oscformat /world/sphere/create;
#X msg 57 143 list \$1s \$3 \$3 \$2;
#X msg 103 206 set /world/\$1s/radius;
#X obj 50 229 oscformat;
#X obj 28 291 oscformat;
#X obj 4 349 oscformat /world/collide;
#X msg 4 324 1;
#X obj 293 257 oscformat;
#X msg 339 232 set /world/\$1s/stiffness;
#X msg 74 266 set /world/\$1s/mass;
#X msg 293 233 1500;
#X floatatom 200 86 5 0 0 0 - - -;
#X floatatom 147 86 5 0 0 0 - - -;
#X floatatom 235 27 5 0 0 0 - - -;
#X floatatom 116 42 5 0 0 0 - - -;
#X obj 157 24 + 10;
#X obj 194 55 / 8;
#X obj 157 51 / 12;
#X msg 50 206 0.01;
#X msg 28 267 20;
#X obj 361 189 print;
#X connect 1 0 5 0;
#X connect 2 0 4 1;
#X connect 2 0 9 0;
#X connect 3 0 10 0;
#X connect 3 0 29 0;
#X connect 3 0 30 0;
#X connect 3 0 21 0;
#X connect 3 1 12 0;
#X connect 3 1 10 1;
#X connect 3 1 13 0;
#X connect 3 1 20 0;
#X connect 3 1 19 0;
#X connect 4 0 2 0;
#X connect 4 0 1 0;
#X connect 5 0 3 0;
#X connect 6 0 4 0;
#X connect 6 0 8 0;
#X connect 7 0 4 1;
#X connect 8 0 17 0;
#X connect 9 0 24 0;
#X connect 9 0 27 0;
#X connect 9 0 26 0;
#X connect 11 0 0 0;
#X connect 12 0 11 0;
#X connect 12 0 31 0;
#X connect 13 0 14 0;
#X connect 14 0 0 0;
#X connect 15 0 0 0;
#X connect 16 0 0 0;
#X connect 17 0 16 0;
#X connect 19 0 18 0;
#X connect 20 0 15 0;
#X connect 21 0 18 0;
#X connect 26 0 25 0;
#X connect 26 0 28 0;
#X connect 27 0 5 2;
#X connect 27 0 22 0;
#X connect 28 0 5 1;
#X connect 28 0 23 0;
#X connect 29 0 14 0;
#X connect 30 0 15 0;
#X restore 1592 470 pd createmarble;
#N canvas 160 452 490 340 connect 0;
#X obj 20 64 tgl 15 0 empty empty empty 17 7 0 10 -262144 -1 -1 0 1
;
#X msg 193 242 disconnect;
#X obj 20 114 tgl 15 0 empty empty empty 17 7 0 10 -262144 -1 -1 0
1;
#X msg 192 219 connect localhost 7774;
#X obj 52 191 r osc;
#X msg 20 42 1;
#X text 48 40 turn on graphics and haptics;
#X obj 20 0 inlet;
#X obj 278 167 s rosc;
#X msg 229 122 0;
#X obj 192 139 spigot 1;
#X obj 197 104 t b b;
#X obj 20 21 t b b;
#X obj 278 67 loadbang;
#X msg 278 92 listen 7778;
#X text 275 43 Receive on port 7778;
#X obj 278 117 netreceive -u -b;
#X obj 278 142 oscparse;
#X obj 20 221 list prepend send;
#X obj 20 244 list trim;
#X obj 20 267 netsend -u -b;
#X obj 20 84 oscformat /haptics/enable;
#X obj 20 135 oscformat /graphics/enable;
#X connect 0 0 21 0;
#X connect 1 0 20 0;
#X connect 2 0 22 0;
#X connect 3 0 20 0;
#X connect 4 0 18 0;
#X connect 5 0 18 0;
#X connect 7 0 12 0;
#X connect 10 0 3 0;
#X connect 12 0 10 0;
#X connect 12 1 11 0;
#X connect 13 0 14 0;
#X connect 14 0 16 0;
#X connect 16 0 17 0;
#X connect 17 0 8 0;
#X connect 18 0 19 0;
#X connect 19 0 20 0;
#X connect 21 0 18 0;
#X connect 22 0 18 0;
#X restore 28 154 pd connect;
#X obj 28 133 bng 15 250 50 0 empty empty empty 17 7 0 10 -262144 -1
-1;
#N canvas 298 168 347 393 smash 0;
#X obj 32 15 inlet;
#X msg 32 241 1;
#X obj 32 265 oscformat /world/s1/collide/get;
#X obj 32 285 oscformat /world/s2/collide/get;
#X obj 32 305 oscformat /world/s3/collide/get;
#X obj 32 328 s osc;
#X obj 71 121 oscformat /world/sphere/create;
#X msg 71 100 list s3 0 0 0.1;
#X msg 71 80 list s2 0 -0.1 0;
#X msg 71 60 list s1 0 0.1 0;
#X obj 116 170 oscformat /world/s1/force;
#X obj 116 190 oscformat /world/s2/force;
#X obj 116 210 oscformat /world/s3/force;
#X msg 51 210 0 0 -0.5;
#X msg 51 190 0 0.5 0;
#X msg 51 170 0 -0.5 0;
#X obj 116 233 s osc;
#X obj 71 144 s osc;
#X obj 32 38 t b b b;
#X connect 0 0 18 0;
#X connect 1 0 2 0;
#X connect 1 0 3 0;
#X connect 1 0 4 0;
#X connect 2 0 5 0;
#X connect 3 0 5 0;
#X connect 4 0 5 0;
#X connect 6 0 17 0;
#X connect 7 0 6 0;
#X connect 8 0 6 0;
#X connect 9 0 6 0;
#X connect 10 0 16 0;
#X connect 11 0 16 0;
#X connect 12 0 16 0;
#X connect 13 0 12 0;
#X connect 14 0 11 0;
#X connect 15 0 10 0;
#X connect 18 0 1 0;
#X connect 18 1 15 0;
#X connect 18 1 14 0;
#X connect 18 1 13 0;
#X connect 18 2 9 0;
#X connect 18 2 8 0;
#X connect 18 2 7 0;
#X restore 1161 251 pd smash;
#X obj 1161 227 bng 15 250 50 0 empty empty empty 17 7 0 10 -262144
-1 -1;
#X text 1113 615 audio;
#N canvas 930 23 510 436 beepcollide 0;
#X obj 79 73 route world;
#X obj 79 159 print collided;
#X obj 79 26 r rosc;
#X obj 26 272 dac~;
#X obj 31 11 inlet;
#X obj 31 229 *~;
#X obj 79 116 route collide;
#X obj 92 94 route s*;
#X obj 140 138 unpack s s 0;
#X obj 228 175 clip 0 1;
#X msg 209 14 \; pd dsp 1;
#X obj 209 -6 select 1;
#N canvas 296 207 882 649 modal 0;
#N canvas 0 22 450 300 (subpatch) 0;
#X array array2 64 float 0;
#X coords 0 1 63 -1 200 140 1;
#X restore 134 358 graph;
#N canvas 0 22 450 300 (subpatch) 0;
#X array array3 64 float 3;
#A 0 -0.0857145 0.485715 0.0142857 -0.0142857 -0.0142857 0 0 0 0 0
0 0 0 0 0 0 0 0 0 0 0 0 0 0 0 0 0 0 0 0 0 0 0 0 0 0 0 0 0 0 0 0 0 0
0 0 0 0 0 0 0 0 0 0 0 0 0 0 0 0 0 0 0 0;
#X coords 0 1 63 -1 200 140 1;
#X restore 458 348 graph;
#X obj 126 67 tabplay~ array3;
#X obj 82 25 bng 15 250 50 0 empty empty empty 0 -6 0 8 -262144 -1
-1;
#X msg 484 294 \; array3 const 0 \;;
#X obj 591 321 tabwrite array3;
#X floatatom 594 265 5 0 0 0 - - -;
#X floatatom 151 137 5 0 0 0 - - -;
#X obj 134 314 tabwrite~ array2;
#X obj 168 270 bang~;
#X msg 398 132 1 0.5 0.3 0.2 0.1;
#X obj 228 49 spigot;
#N canvas 0 22 458 308 bangss 0;
#X obj 161 53 block~ 4096;
#X obj 103 116 bang~;
#X obj 105 185 outlet;
#X obj 170 154 s bangsss;
#X connect 1 0 3 0;
#X restore 188 17 pd bangss;
#X obj 113 24 bng 15 250 50 0 empty empty empty 0 -6 0 8 -262144 -1
-1;
#X msg 372 54 0;
#X msg 336 29 1;
#X obj 273 15 r bangsss;
#X obj 371 27 delay 1000;
#X floatatom 681 263 5 0 0 0 - - -;
#X msg 602 131 750 750 800 650 750;
#X obj 434 60 loadbang;
#X obj 399 89 t b b;
#X obj 133 270 *~ 1;
#X text 148 157 fund. freq;
#X text 244 158 overtone series;
#X text 404 151 amplitude series;
#X text 608 157 exp. decay rates in ms;
#X text 473 250 Impulse table (draw an impulse here);
#X text 589 174 (decays by 20 dB in the time given);
#X text 109 44 click the bangs;
#X obj 410 61 bng 15 250 50 0 empty empty empty 17 7 0 10 -262144 -1
-1;
#X obj 122 110 *~;
#X obj 26 -11 r hit;
#X obj 34 26 t b f;
#X msg 231 135 1 3 5 6.18 8.12;
#X msg 38 79 1;
#X msg 275 93 62;
#X obj 74 -10 inlet;
#X obj 155 106 inlet;
#N canvas 0 22 731 433 perc_inst1 0;
#X obj 118 113 * 1;
#X obj 208 115 * 3;
#X obj 294 116 * 5;
#X obj 376 116 * 6.12372;
#X obj 453 119 * 7.07107;
#X obj 118 148 pack f f;
#X obj 208 150 pack f f;
#X obj 294 151 pack f f;
#X obj 376 151 pack f f;
#X obj 453 154 pack f f;
#X obj 26 20 inlet~;
#X obj 114 23 inlet;
#X text 94 5 fundamental freq.;
#X obj 233 25 inlet;
#X obj 207 58 unpack f f f f f;
#X text 263 8 overtone series;
#X obj 122 216 sig~;
#X obj 98 263 *~;
#X obj 212 214 sig~;
#X obj 188 261 *~;
#X obj 295 216 sig~;
#X obj 271 263 *~;
#X obj 380 217 sig~;
#X obj 356 264 *~;
#X obj 458 216 sig~;
#X obj 434 263 *~;
#X obj 409 23 inlet;
#X obj 383 56 unpack 0 0 0 0 0;
#X obj 114 337 +~;
#X obj 111 398 outlet~;
#X obj 564 21 inlet;
#X obj 538 54 unpack 1 1 1 1 1;
#X text 408 4 amplitudes;
#X text 540 6 decay by 10 \, time in ms;
#N canvas 0 22 353 493 ds 0;
#X obj 12 384 biquad~;
#X obj 57 351 pack f f f f f;
#X obj 145 188 exp;
#X obj 156 98 * 44.1;
#X text 209 96 ms to samples;
#X obj 156 119 t b f;
#X obj 145 154 / 44100;
#X msg 91 118 -2.30259;
#X obj 145 219 t f f;
#X obj 17 148 * 6.28319;
#X obj 63 208 sin;
#X obj 26 210 cos;
#X obj 60 257 * 2;
#X obj 45 290 * 1;
#X obj 92 256 t f f;
#X obj 92 279 * 1;
#X obj 82 313 * -1;
#X msg 132 302 0;
#X obj 166 303 * 1;
#X msg 199 302 0;
#X obj 32 119 / 44100;
#X obj 34 180 t f f;
#X text 176 189 a;
#X text 13 229 cos and sin of b;
#X obj 32 75 unpack f f;
#X obj 56 460 outlet~;
#X obj 11 31 inlet~;
#X obj 68 15 inlet;
#X text 113 27 takes a list of arguments;
#X text 94 39 fundamental freq \, and exponential;
#X text 197 50 decay time in ms;
#X obj 88 95 f;
#X obj 33 98 t f b;
#X connect 0 0 25 0;
#X connect 1 0 0 0;
#X connect 2 0 8 0;
#X connect 3 0 5 0;
#X connect 5 0 7 0;
#X connect 5 1 6 1;
#X connect 6 0 2 0;
#X connect 7 0 6 0;
#X connect 8 0 12 0;
#X connect 8 1 14 0;
#X connect 8 1 17 0;
#X connect 8 1 19 0;
#X connect 8 1 18 1;
#X connect 9 0 21 0;
#X connect 10 0 18 0;
#X connect 11 0 13 0;
#X connect 12 0 13 1;
#X connect 13 0 1 0;
#X connect 14 0 15 0;
#X connect 14 1 15 1;
#X connect 15 0 16 0;
#X connect 16 0 1 1;
#X connect 17 0 1 2;
#X connect 18 0 1 3;
#X connect 19 0 1 4;
#X connect 20 0 9 0;
#X connect 21 0 11 0;
#X connect 21 1 10 0;
#X connect 24 0 32 0;
#X connect 24 1 31 1;
#X connect 26 0 0 0;
#X connect 27 0 24 0;
#X connect 31 0 3 0;
#X connect 32 0 20 0;
#X connect 32 1 31 0;
#X restore 434 183 pd ds;
#N canvas 0 22 353 493 ds 0;
#X obj 12 384 biquad~;
#X obj 57 351 pack f f f f f;
#X obj 145 188 exp;
#X obj 156 98 * 44.1;
#X text 209 96 ms to samples;
#X obj 156 119 t b f;
#X obj 145 154 / 44100;
#X msg 91 118 -2.30259;
#X obj 145 219 t f f;
#X obj 17 148 * 6.28319;
#X obj 63 208 sin;
#X obj 26 210 cos;
#X obj 60 257 * 2;
#X obj 45 290 * 1;
#X obj 92 256 t f f;
#X obj 92 279 * 1;
#X obj 82 313 * -1;
#X msg 132 302 0;
#X obj 166 303 * 1;
#X msg 199 302 0;
#X obj 32 119 / 44100;
#X obj 34 180 t f f;
#X text 176 189 a;
#X text 13 229 cos and sin of b;
#X obj 32 75 unpack f f;
#X obj 56 460 outlet~;
#X obj 11 31 inlet~;
#X obj 68 15 inlet;
#X text 113 27 takes a list of arguments;
#X text 94 39 fundamental freq \, and exponential;
#X text 197 50 decay time in ms;
#X obj 88 95 f;
#X obj 33 98 t f b;
#X connect 0 0 25 0;
#X connect 1 0 0 0;
#X connect 2 0 8 0;
#X connect 3 0 5 0;
#X connect 5 0 7 0;
#X connect 5 1 6 1;
#X connect 6 0 2 0;
#X connect 7 0 6 0;
#X connect 8 0 12 0;
#X connect 8 1 14 0;
#X connect 8 1 17 0;
#X connect 8 1 19 0;
#X connect 8 1 18 1;
#X connect 9 0 21 0;
#X connect 10 0 18 0;
#X connect 11 0 13 0;
#X connect 12 0 13 1;
#X connect 13 0 1 0;
#X connect 14 0 15 0;
#X connect 14 1 15 1;
#X connect 15 0 16 0;
#X connect 16 0 1 1;
#X connect 17 0 1 2;
#X connect 18 0 1 3;
#X connect 19 0 1 4;
#X connect 20 0 9 0;
#X connect 21 0 11 0;
#X connect 21 1 10 0;
#X connect 24 0 32 0;
#X connect 24 1 31 1;
#X connect 26 0 0 0;
#X connect 27 0 24 0;
#X connect 31 0 3 0;
#X connect 32 0 20 0;
#X connect 32 1 31 0;
#X restore 356 183 pd ds;
#N canvas 0 22 353 493 ds 0;
#X obj 12 384 biquad~;
#X obj 57 351 pack f f f f f;
#X obj 145 188 exp;
#X obj 156 98 * 44.1;
#X text 209 96 ms to samples;
#X obj 156 119 t b f;
#X obj 145 154 / 44100;
#X msg 91 118 -2.30259;
#X obj 145 219 t f f;
#X obj 17 148 * 6.28319;
#X obj 63 208 sin;
#X obj 26 210 cos;
#X obj 60 257 * 2;
#X obj 45 290 * 1;
#X obj 92 256 t f f;
#X obj 92 279 * 1;
#X obj 82 313 * -1;
#X msg 132 302 0;
#X obj 166 303 * 1;
#X msg 199 302 0;
#X obj 32 119 / 44100;
#X obj 34 180 t f f;
#X text 176 189 a;
#X text 13 229 cos and sin of b;
#X obj 32 75 unpack f f;
#X obj 56 460 outlet~;
#X obj 11 31 inlet~;
#X obj 68 15 inlet;
#X text 113 27 takes a list of arguments;
#X text 94 39 fundamental freq \, and exponential;
#X text 197 50 decay time in ms;
#X obj 88 95 f;
#X obj 33 98 t f b;
#X connect 0 0 25 0;
#X connect 1 0 0 0;
#X connect 2 0 8 0;
#X connect 3 0 5 0;
#X connect 5 0 7 0;
#X connect 5 1 6 1;
#X connect 6 0 2 0;
#X connect 7 0 6 0;
#X connect 8 0 12 0;
#X connect 8 1 14 0;
#X connect 8 1 17 0;
#X connect 8 1 19 0;
#X connect 8 1 18 1;
#X connect 9 0 21 0;
#X connect 10 0 18 0;
#X connect 11 0 13 0;
#X connect 12 0 13 1;
#X connect 13 0 1 0;
#X connect 14 0 15 0;
#X connect 14 1 15 1;
#X connect 15 0 16 0;
#X connect 16 0 1 1;
#X connect 17 0 1 2;
#X connect 18 0 1 3;
#X connect 19 0 1 4;
#X connect 20 0 9 0;
#X connect 21 0 11 0;
#X connect 21 1 10 0;
#X connect 24 0 32 0;
#X connect 24 1 31 1;
#X connect 26 0 0 0;
#X connect 27 0 24 0;
#X connect 31 0 3 0;
#X connect 32 0 20 0;
#X connect 32 1 31 0;
#X restore 272 184 pd ds;
#N canvas 0 22 353 493 ds 0;
#X obj 12 384 biquad~;
#X obj 57 351 pack f f f f f;
#X obj 145 188 exp;
#X obj 156 98 * 44.1;
#X text 209 96 ms to samples;
#X obj 156 119 t b f;
#X obj 145 154 / 44100;
#X msg 91 118 -2.30259;
#X obj 145 219 t f f;
#X obj 17 148 * 6.28319;
#X obj 63 208 sin;
#X obj 26 210 cos;
#X obj 60 257 * 2;
#X obj 45 290 * 1;
#X obj 92 256 t f f;
#X obj 92 279 * 1;
#X obj 82 313 * -1;
#X msg 132 302 0;
#X obj 166 303 * 1;
#X msg 199 302 0;
#X obj 32 119 / 44100;
#X obj 34 180 t f f;
#X text 176 189 a;
#X text 13 229 cos and sin of b;
#X obj 32 75 unpack f f;
#X obj 56 460 outlet~;
#X obj 11 31 inlet~;
#X obj 68 15 inlet;
#X text 113 27 takes a list of arguments;
#X text 94 39 fundamental freq \, and exponential;
#X text 197 50 decay time in ms;
#X obj 88 95 f;
#X obj 33 98 t f b;
#X connect 0 0 25 0;
#X connect 1 0 0 0;
#X connect 2 0 8 0;
#X connect 3 0 5 0;
#X connect 5 0 7 0;
#X connect 5 1 6 1;
#X connect 6 0 2 0;
#X connect 7 0 6 0;
#X connect 8 0 12 0;
#X connect 8 1 14 0;
#X connect 8 1 17 0;
#X connect 8 1 19 0;
#X connect 8 1 18 1;
#X connect 9 0 21 0;
#X connect 10 0 18 0;
#X connect 11 0 13 0;
#X connect 12 0 13 1;
#X connect 13 0 1 0;
#X connect 14 0 15 0;
#X connect 14 1 15 1;
#X connect 15 0 16 0;
#X connect 16 0 1 1;
#X connect 17 0 1 2;
#X connect 18 0 1 3;
#X connect 19 0 1 4;
#X connect 20 0 9 0;
#X connect 21 0 11 0;
#X connect 21 1 10 0;
#X connect 24 0 32 0;
#X connect 24 1 31 1;
#X connect 26 0 0 0;
#X connect 27 0 24 0;
#X connect 31 0 3 0;
#X connect 32 0 20 0;
#X connect 32 1 31 0;
#X restore 189 183 pd ds;
#N canvas 0 22 353 493 ds 0;
#X obj 12 384 biquad~;
#X obj 57 351 pack f f f f f;
#X obj 145 188 exp;
#X obj 156 98 * 44.1;
#X text 209 96 ms to samples;
#X obj 156 119 t b f;
#X obj 145 154 / 44100;
#X msg 91 118 -2.30259;
#X obj 145 219 t f f;
#X obj 17 148 * 6.28319;
#X obj 63 208 sin;
#X obj 26 210 cos;
#X obj 60 257 * 2;
#X obj 45 290 * 1;
#X obj 92 256 t f f;
#X obj 92 279 * 1;
#X obj 82 313 * -1;
#X msg 132 302 0;
#X obj 166 303 * 1;
#X msg 199 302 0;
#X obj 32 119 / 44100;
#X obj 34 180 t f f;
#X text 176 189 a;
#X text 13 229 cos and sin of b;
#X obj 32 75 unpack f f;
#X obj 56 460 outlet~;
#X obj 11 31 inlet~;
#X obj 68 15 inlet;
#X text 113 27 takes a list of arguments;
#X text 94 39 fundamental freq \, and exponential;
#X text 197 50 decay time in ms;
#X obj 88 95 f;
#X obj 33 98 t f b;
#X connect 0 0 25 0;
#X connect 1 0 0 0;
#X connect 2 0 8 0;
#X connect 3 0 5 0;
#X connect 5 0 7 0;
#X connect 5 1 6 1;
#X connect 6 0 2 0;
#X connect 7 0 6 0;
#X connect 8 0 12 0;
#X connect 8 1 14 0;
#X connect 8 1 17 0;
#X connect 8 1 19 0;
#X connect 8 1 18 1;
#X connect 9 0 21 0;
#X connect 10 0 18 0;
#X connect 11 0 13 0;
#X connect 12 0 13 1;
#X connect 13 0 1 0;
#X connect 14 0 15 0;
#X connect 14 1 15 1;
#X connect 15 0 16 0;
#X connect 16 0 1 1;
#X connect 17 0 1 2;
#X connect 18 0 1 3;
#X connect 19 0 1 4;
#X connect 20 0 9 0;
#X connect 21 0 11 0;
#X connect 21 1 10 0;
#X connect 24 0 32 0;
#X connect 24 1 31 1;
#X connect 26 0 0 0;
#X connect 27 0 24 0;
#X connect 31 0 3 0;
#X connect 32 0 20 0;
#X connect 32 1 31 0;
#X restore 99 182 pd ds;
#X connect 0 0 5 0;
#X connect 1 0 6 0;
#X connect 2 0 7 0;
#X connect 3 0 8 0;
#X connect 4 0 9 0;
#X connect 5 0 38 1;
#X connect 6 0 37 1;
#X connect 7 0 36 1;
#X connect 8 0 35 1;
#X connect 9 0 34 1;
#X connect 10 0 34 0;
#X connect 10 0 35 0;
#X connect 10 0 36 0;
#X connect 10 0 37 0;
#X connect 10 0 38 0;
#X connect 11 0 0 0;
#X connect 11 0 1 0;
#X connect 11 0 2 0;
#X connect 11 0 3 0;
#X connect 11 0 4 0;
#X connect 13 0 14 0;
#X connect 14 0 0 1;
#X connect 14 1 1 1;
#X connect 14 2 2 1;
#X connect 14 3 3 1;
#X connect 14 4 4 1;
#X connect 16 0 17 1;
#X connect 17 0 28 0;
#X connect 18 0 19 1;
#X connect 19 0 28 0;
#X connect 20 0 21 1;
#X connect 21 0 28 0;
#X connect 22 0 23 1;
#X connect 23 0 28 0;
#X connect 24 0 25 1;
#X connect 25 0 28 0;
#X connect 26 0 27 0;
#X connect 27 0 16 0;
#X connect 27 1 18 0;
#X connect 27 2 20 0;
#X connect 27 3 22 0;
#X connect 27 4 24 0;
#X connect 28 0 29 0;
#X connect 30 0 31 0;
#X connect 31 0 5 1;
#X connect 31 1 6 1;
#X connect 31 2 7 1;
#X connect 31 3 8 1;
#X connect 31 4 9 1;
#X connect 34 0 25 0;
#X connect 35 0 23 0;
#X connect 36 0 21 0;
#X connect 37 0 19 0;
#X connect 38 0 17 0;
#X restore 132 225 pd perc_inst1;
#X obj 37 58 loadbang;
#X obj 305 325 outlet~;
#X obj 306 261 *~ 1;
#X text 464 1 This modal synthesis patch (and all subpatches herein)
;
#X text 465 16 was posted to the PD mailing list by Charles Henry \,
2007;
#X text 464 36 Distributed here with permission.;
#X connect 2 0 31 0;
#X connect 3 0 2 0;
#X connect 6 0 5 0;
#X connect 7 0 39 1;
#X connect 9 0 8 0;
#X connect 10 0 39 3;
#X connect 11 0 2 0;
#X connect 13 0 15 0;
#X connect 13 0 17 0;
#X connect 14 0 11 1;
#X connect 15 0 11 1;
#X connect 16 0 11 0;
#X connect 17 0 14 0;
#X connect 18 0 5 1;
#X connect 19 0 39 4;
#X connect 20 0 21 0;
#X connect 21 0 36 0;
#X connect 21 1 34 0;
#X connect 21 1 10 0;
#X connect 21 1 19 0;
#X connect 22 0 8 0;
#X connect 30 0 21 0;
#X connect 31 0 39 0;
#X connect 32 0 33 0;
#X connect 33 0 2 0;
#X connect 33 1 31 1;
#X connect 34 0 39 2;
#X connect 35 0 31 1;
#X connect 36 0 7 0;
#X connect 37 0 33 0;
#X connect 38 0 7 0;
#X connect 39 0 22 0;
#X connect 39 0 42 0;
#X connect 40 0 35 0;
#X connect 42 0 41 0;
#X restore 228 208 pd modal;
#X obj 288 175 inlet;
#X obj 228 156 * 10;
#X obj 79 48 route list;
#X connect 0 0 6 0;
#X connect 0 0 7 0;
#X connect 2 0 15 0;
#X connect 4 0 5 0;
#X connect 4 0 11 0;
#X connect 5 0 3 0;
#X connect 5 0 3 1;
#X connect 6 0 8 0;
#X connect 7 0 6 0;
#X connect 8 2 14 0;
#X connect 9 0 12 0;
#X connect 11 0 10 0;
#X connect 12 0 5 1;
#X connect 13 0 12 1;
#X connect 14 0 9 0;
#X connect 15 0 0 0;
#X restore 1089 639 pd beepcollide;
#X msg 1677 446 2;
#N canvas 896 443 544 400 s3_accel 0;
#X obj 33 162 s osc;
#X obj 33 32 tgl 15 0 empty empty empty 17 7 0 10 -262144 -1 -1 0 1
;
#X obj 162 308 route magnitude;
#X floatatom 289 232 10 0 0 0 - - -;
#X floatatom 288 251 10 0 0 0 - - -;
#X text 369 251 velocity;
#X text 368 232 acceleration;
#X obj 313 311 tabwrite accel;
#X obj 371 280 f;
#X obj 402 280 + 1;
#X obj 345 277 bng 15 250 50 0 empty empty empty 17 7 0 10 -262144
-1 -1;
#X obj 429 299 mod 1000;
#X obj 291 283 * 10;
#X obj 23 238 route world;
#X obj 23 306 route magnitude;
#X obj 24 281 route velocity acceleration;
#X obj 33 10 inlet;
#X obj 23 191 r rosc;
#X obj 217 255 outlet;
#X obj 237 233 outlet;
#X obj 50 135 oscformat /world/3s/destroy;
#X obj 23 260 route 3s;
#X obj 33 52 * 30;
#X obj 33 75 oscformat /world/3s/velocity/magnitude/get;
#X obj 33 97 oscformat /world/3s/acceleration/magnitude/get;
#X obj 23 214 route list;
#X obj 165 28 oscformat /world/camera/position/get;
#X connect 1 0 22 0;
#X connect 2 0 3 0;
#X connect 3 0 10 0;
#X connect 3 0 12 0;
#X connect 3 0 19 0;
#X connect 4 0 18 0;
#X connect 8 0 9 0;
#X connect 9 0 11 0;
#X connect 10 0 8 0;
#X connect 11 0 8 1;
#X connect 11 0 7 1;
#X connect 12 0 7 0;
#X connect 13 0 21 0;
#X connect 14 0 4 0;
#X connect 15 0 14 0;
#X connect 15 1 2 0;
#X connect 16 0 1 0;
#X connect 17 0 25 0;
#X connect 20 0 0 0;
#X connect 21 0 15 0;
#X connect 22 0 23 0;
#X connect 22 0 24 0;
#X connect 22 0 26 0;
#X connect 23 0 0 0;
#X connect 24 0 0 0;
#X connect 25 0 13 0;
#X connect 26 0 0 0;
#X restore 1078 462 pd s3_accel;
#X obj 1078 440 tgl 15 0 empty empty empty 17 7 0 10 -262144 -1 -1
0 1;
#X floatatom 1078 499 10 0 0 0 - - -;
#X floatatom 1077 518 10 0 0 0 - - -;
#X text 1158 518 velocity;
#X text 1157 499 acceleration;
#X text 1076 400 Tracks acceleration;
#X text 1078 413 of 3rd marble.;
#X text 1160 205 Smash 3 marbles together;
#X text 117 109 Give it some gravity;
#X text 172 276 clear the world;
#X text 1641 430 reset counter;
#X text 1087 594 objects collide;
#X text 1088 580 Beep when any two;
#N canvas 894 145 546 454 forcestick 0;
#X obj 21 54 bng 15 250 50 0 empty empty empty 0 -6 0 8 -262144 -1
-1;
#X text 77 17 Force Stick;
#X obj 21 73 t b b b b b;
#X obj 22 15 inlet;
#X obj 21 119 oscformat /world/prism/create;
#X msg 21 96 list stick 0 0 0.15;
#X obj 21 176 oscformat /world/stick/size;
#X msg 21 153 0.2 0.02 0.3;
#X obj 28 235 oscformat /world/stick/mass;
#X msg 21 212 2;
#X obj 21 291 oscformat /world/hinge/create;
#X msg -1 268 list c1 stick world 0 0 0 1 0 0;
#X obj 21 340 oscformat /world/c1/response/spring;
#X obj 21 365 s osc;
#X msg 21 317 0.2 0.01;
#X obj 230 130 s osc;
#X obj 287 164 r rosc;
#X obj 287 187 route list;
#X obj 287 210 route world;
#X obj 287 233 route stick;
#X obj 287 256 route force;
#X msg 230 82 100;
#X obj 286 279 unpack 0 0 0;
#X floatatom 287 302 15 0 0 0 - - -;
#X floatatom 312 321 15 0 0 0 - - -;
#X floatatom 327 341 15 0 0 0 - - -;
#X obj 230 105 oscformat /world/stick/force/magnitude/get;
#X obj 268 368 route magnitude;
#X floatatom 267 391 15 0 0 0 - - -;
#X text 230 44 example of how to get the force of the cursor on the
stick;
#X connect 0 0 2 0;
#X connect 2 0 14 0;
#X connect 2 1 11 0;
#X connect 2 2 9 0;
#X connect 2 3 7 0;
#X connect 2 4 5 0;
#X connect 3 0 0 0;
#X connect 4 0 13 0;
#X connect 5 0 4 0;
#X connect 6 0 13 0;
#X connect 7 0 6 0;
#X connect 8 0 13 0;
#X connect 9 0 8 0;
#X connect 10 0 13 0;
#X connect 11 0 10 0;
#X connect 12 0 13 0;
#X connect 14 0 12 0;
#X connect 16 0 17 0;
#X connect 17 0 18 0;
#X connect 18 0 19 0;
#X connect 19 0 20 0;
#X connect 20 0 22 0;
#X connect 20 0 27 0;
#X connect 21 0 26 0;
#X connect 22 0 23 0;
#X connect 22 1 24 0;
#X connect 22 2 25 0;
#X connect 26 0 15 0;
#X connect 27 0 28 0;
#X restore 1448 249 pd forcestick;
#X obj 1448 230 bng 15 250 50 0 empty empty empty 17 7 0 10 -262144
-1 -1;
#X text 1446 209 Force Stick;
#N canvas 707 116 525 300 audioforce 0;
#X obj 25 32 r rosc;
#X floatatom 25 142 10 0 0 0 - - -;
#X obj 25 96 route c1;
#X obj 208 169 osc~;
#X obj 232 245 dac~;
#X floatatom 249 171 5 0 0 0 - - -;
#X obj 230 216 *~;
#X obj 295 170 inlet;
#X obj 295 246 s osc;
#X obj 25 74 route world;
#X obj 25 118 route torque;
#X obj 209 145 * 1000;
#X obj 26 53 route list;
#X obj 295 223 oscformat /world/c1/torque/get;
#X obj 295 200 * 10;
#X text 328 200 polling time (ms);
#X text 212 124 scaling factor (torque -> Hz);
#X connect 0 0 12 0;
#X connect 2 0 10 0;
#X connect 3 0 6 0;
#X connect 6 0 4 0;
#X connect 6 0 4 1;
#X connect 7 0 6 1;
#X connect 7 0 14 0;
#X connect 9 0 2 0;
#X connect 10 0 11 0;
#X connect 10 0 1 0;
#X connect 11 0 3 0;
#X connect 11 0 5 0;
#X connect 12 0 9 0;
#X connect 13 0 8 0;
#X connect 14 0 13 0;
#X restore 1580 248 pd audioforce;
#X obj 1580 225 tgl 15 0 empty empty empty 17 7 0 10 -262144 -1 -1
0 1;
#X text 1604 225 audio;
#X text 25 8 Test patch for DIMPLE: The Dynamic Interactive Musically
PhysicaL Environment;
#X obj 1055 560 loadbang;
#X msg 1055 581 1;
#X text 26 112 Initialize;
#X text 26 101 Step 1:;
#X text 1449 364 Step 2:;
#X text 1426 444 Step 4:;
#X text 1054 539 Don't forget to turn on DSP!;
#N canvas 447 163 801 569 grab 0;
#X obj 37 361 s osc;
#X obj 231 19 inlet;
#X obj 107 75 t b b b;
#X obj 231 45 route sphere box none;
#X obj 312 276 t b b b;
#X obj 293 514 s osc;
#X obj 432 149 s osc;
#X obj 37 336 oscformat /world/sphere_proxy/position;
#X msg 37 313 0 0 0.5;
#X obj 146 120 oscformat /world/sphere/create;
#X obj 126 169 oscformat /world/sphere_proxy/radius;
#X msg 126 146 0.03;
#X obj 43 194 oscformat /world/sphere_proxy/grab;
#X obj 125 243 oscformat /world/sphere_proxy/mass;
#X msg 125 220 0.001;
#X obj 107 268 s osc;
#X obj 412 327 oscformat /world/prism/create;
#X msg 412 304 list box_proxy 0 0.2 0;
#X obj 334 373 oscformat /world/box_proxy/size;
#X msg 334 350 0.1 0.1 0.1;
#X obj 332 426 oscformat /world/box_proxy/mass;
#X msg 332 403 1;
#X obj 296 473 oscformat /world/box_proxy/color;
#X msg 296 450 0.7 0.4 0.2;
#X obj 527 479 oscformat /world/box_proxy/destroy;
#X obj 527 460 bng 15 250 50 0 empty empty empty 17 7 0 10 -262144
-1 -1;
#X obj 94 472 oscformat /world/box_proxy/grab;
#X obj 432 127 oscformat /world/drop;
#X obj 432 108 bng 15 250 50 0 empty empty empty 17 7 0 10 -262144
-1 -1;
#X msg 146 97 list sphere_proxy 0 0 0;
#X obj 83 143 bng 15 250 50 0 empty empty empty 17 7 0 10 -262144 -1
-1;
#X obj 595 171 s osc;
#X floatatom 595 127 5 0 0 0 - - -;
#X obj 595 149 oscformat /world/grab/feedback;
#X obj 594 90 s osc;
#X floatatom 594 45 5 0 0 0 - - -;
#X obj 594 68 oscformat /world/grab/stiffness;
#X obj 596 257 s osc;
#X floatatom 596 213 5 0 0 0 - - -;
#X obj 596 235 oscformat /world/grab/stiffness;
#X text 597 21 grab spring parameters;
#X connect 1 0 3 0;
#X connect 2 1 11 0;
#X connect 2 1 14 0;
#X connect 2 2 29 0;
#X connect 3 0 2 0;
#X connect 3 1 4 0;
#X connect 3 2 28 0;
#X connect 4 0 26 0;
#X connect 4 1 19 0;
#X connect 4 1 21 0;
#X connect 4 1 23 0;
#X connect 4 2 17 0;
#X connect 7 0 0 0;
#X connect 8 0 7 0;
#X connect 9 0 15 0;
#X connect 10 0 15 0;
#X connect 11 0 10 0;
#X connect 12 0 15 0;
#X connect 13 0 15 0;
#X connect 14 0 13 0;
#X connect 16 0 5 0;
#X connect 17 0 16 0;
#X connect 18 0 5 0;
#X connect 19 0 18 0;
#X connect 20 0 5 0;
#X connect 21 0 20 0;
#X connect 22 0 5 0;
#X connect 23 0 22 0;
#X connect 24 0 5 0;
#X connect 25 0 24 0;
#X connect 26 0 5 0;
#X connect 27 0 6 0;
#X connect 28 0 27 0;
#X connect 29 0 9 0;
#X connect 30 0 12 0;
#X connect 32 0 33 0;
#X connect 33 0 31 0;
#X connect 35 0 36 0;
#X connect 36 0 34 0;
#X connect 38 0 39 0;
#X connect 39 0 37 0;
#X restore 1331 268 pd grab;
#X msg 1285 237 sphere;
#X msg 1331 237 box;
#X msg 1359 237 none;
#N canvas 307 155 691 688 snake 0;
#X obj 28 14 inlet;
#N canvas 67 89 450 300 itercount 0;
#X obj 86 110 until;
#X obj 89 170 f;
#X obj 120 172 + 1;
#X obj 164 172 sel 0;
#X obj 89 62 inlet;
#X obj 88 240 outlet;
#X msg 105 138 0;
#X obj 90 87 t f b;
#X connect 0 0 1 0;
#X connect 1 0 2 0;
#X connect 1 0 5 0;
#X connect 2 0 1 1;
#X connect 2 0 3 0;
#X connect 3 0 0 1;
#X connect 4 0 7 0;
#X connect 6 0 1 1;
#X connect 7 0 0 0;
#X connect 7 1 6 0;
#X restore 30 67 pd itercount;
#X obj 31 188 pack 0 0;
#X obj 30 86 t f f;
#X obj 31 214 t l l l;
#X obj 163 105 sel 0;
#X obj 222 127 - 1;
#X obj 190 155 pack 0 0 0;
#X obj 348 147 dac~;
#X obj 347 120 *~;
#X obj 411 147 / 127;
#X obj 411 12 vsl 15 128 0 127 0 0 empty empty empty 0 -9 0 10 -262144
-1 -1 0 1;
#X msg 28 42 5;
#N canvas 1095 510 598 403 audio 0;
#X obj 272 16 r rosc;
#X floatatom 111 170 5 0 0 0 - - -;
#X msg 50 193 \$1 100;
#X obj 50 223 line~;
#N canvas 49 119 450 300 fm 0;
#X obj 113 192 osc~;
#X obj 114 144 +~;
#X obj 114 106 *~;
#X obj 114 66 osc~;
#X obj 112 14 inlet~;
#X obj 174 13 inlet~;
#X obj 235 14 inlet~;
#X obj 111 229 outlet~;
#X connect 0 0 7 0;
#X connect 1 0 0 0;
#X connect 2 0 1 0;
#X connect 3 0 2 0;
#X connect 4 0 3 0;
#X connect 5 0 2 1;
#X connect 6 0 1 1;
#X restore 116 337 pd fm;
#X obj 214 258 sig~;
#X floatatom 232 175 5 0 0 0 - - -;
#X msg 171 198 \$1 100;
#X obj 171 228 line~;
#N canvas 49 119 450 300 fm 0;
#X obj 113 192 osc~;
#X obj 114 144 +~;
#X obj 114 106 *~;
#X obj 114 66 osc~;
#X obj 112 14 inlet~;
#X obj 174 13 inlet~;
#X obj 235 14 inlet~;
#X obj 111 229 outlet~;
#X connect 0 0 7 0;
#X connect 1 0 0 0;
#X connect 2 0 1 0;
#X connect 3 0 2 0;
#X connect 4 0 3 0;
#X connect 5 0 2 1;
#X connect 6 0 1 1;
#X restore 183 338 pd fm;
#X obj 347 288 sig~;
#X floatatom 239 222 5 0 0 0 - - -;
#X obj 353 257 * 2;
#X floatatom 378 170 5 0 0 0 - - -;
#X msg 317 193 \$1 100;
#X obj 317 223 line~;
#X floatatom 499 175 5 0 0 0 - - -;
#X msg 438 198 \$1 100;
#X obj 438 228 line~;
#X obj 124 370 outlet~;
#X obj 437 167 * 1000;
#X obj 170 167 * 1000;
#X obj 47 171 * 1000;
#X obj 314 171 * 1000;
#X obj 272 42 route list;
#X obj 272 65 route world;
#X obj 272 88 route sn1 sn2 sn3 sn4;
#X obj 79 121 route velocity;
#X obj 79 144 route magnitude;
#X obj 185 120 route velocity;
#X obj 185 143 route magnitude;
#X obj 286 121 route velocity;
#X obj 286 144 route magnitude;
#X obj 390 119 route velocity;
#X obj 390 142 route magnitude;
#X connect 0 0 24 0;
#X connect 2 0 3 0;
#X connect 3 0 4 1;
#X connect 4 0 19 0;
#X connect 5 0 4 2;
#X connect 7 0 8 0;
#X connect 8 0 4 0;
#X connect 9 0 19 0;
#X connect 10 0 9 2;
#X connect 11 0 12 0;
#X connect 11 0 5 0;
#X connect 12 0 10 0;
#X connect 14 0 15 0;
#X connect 15 0 9 1;
#X connect 17 0 18 0;
#X connect 18 0 9 0;
#X connect 20 0 16 0;
#X connect 20 0 17 0;
#X connect 21 0 6 0;
#X connect 21 0 7 0;
#X connect 22 0 1 0;
#X connect 22 0 2 0;
#X connect 23 0 13 0;
#X connect 23 0 14 0;
#X connect 24 0 25 0;
#X connect 25 0 26 0;
#X connect 26 0 27 0;
#X connect 26 1 29 0;
#X connect 26 2 31 0;
#X connect 26 3 33 0;
#X connect 27 0 28 0;
#X connect 28 0 22 0;
#X connect 29 0 30 0;
#X connect 30 0 21 0;
#X connect 31 0 32 0;
#X connect 32 0 23 0;
#X connect 33 0 34 0;
#X connect 34 0 20 0;
#X restore 346 24 pd audio;
#X obj 432 11 inlet;
#X obj 433 43 * 30;
#X obj 60 107 * 0.1;
#X obj 211 212 oscformat /world/hinge/create;
#X msg 190 186 list hinge\$1\$2 sn\$1 sn\$2 0 \$3 0 1 0 0;
#X msg 190 256 list /world/hinge\$1\$2/response spring 1 0.1;
#X msg 190 278 list /world/hinge\$1\$2/force/magnitude/get 100;
#X msg 151 303 list /world/sn\$1/velocity/magnitude/get 100;
#X obj 151 500 t l l;
#X msg 180 522 set \$1;
#X obj 151 544 list split 1;
#X obj 151 581 oscformat;
#X obj 151 604 s osc;
#X obj 211 235 s osc;
#X msg 75 398 list /world/prism/create sn\$1 0 \$2 0;
#X msg 334 400 list /world/sn\$1/mass 0.1;
#X msg 53 424 list /world/sn\$1/size 0.4 0.1 0.01;
#X msg 57 447 list /world/sn\$1/color 0.5 0.8 0.5;
#X msg 20 467 list /world/hinge/create hinge\$1world sn0 world 0 0
0 1 0 0;
#X connect 0 0 12 0;
#X connect 1 0 3 0;
#X connect 2 0 4 0;
#X connect 3 0 2 0;
#X connect 3 0 5 0;
#X connect 3 1 16 0;
#X connect 4 1 30 0;
#X connect 4 1 29 0;
#X connect 4 1 31 0;
#X connect 4 2 28 0;
#X connect 5 1 6 0;
#X connect 5 1 7 0;
#X connect 5 1 21 0;
#X connect 6 0 7 1;
#X connect 7 0 18 0;
#X connect 7 0 19 0;
#X connect 7 0 20 0;
#X connect 9 0 8 0;
#X connect 9 0 8 1;
#X connect 10 0 9 1;
#X connect 11 0 10 0;
#X connect 12 0 1 0;
#X connect 12 0 32 0;
#X connect 13 0 9 0;
#X connect 14 0 15 0;
#X connect 15 0 11 0;
#X connect 16 0 2 1;
#X connect 16 0 7 2;
#X connect 17 0 27 0;
#X connect 18 0 17 0;
#X connect 19 0 22 0;
#X connect 20 0 22 0;
#X connect 21 0 22 0;
#X connect 22 0 24 0;
#X connect 22 1 23 0;
#X connect 23 0 25 0;
#X connect 24 1 25 0;
#X connect 25 0 26 0;
#X connect 28 0 22 0;
#X connect 29 0 22 0;
#X connect 30 0 22 0;
#X connect 31 0 22 0;
#X connect 32 0 22 0;
#X restore 1692 248 pd snake;
#X obj 1692 225 bng 15 250 50 0 empty empty empty 17 7 0 10 -262144
-1 -1;
#X text 1689 204 The Snake;
#X obj 1743 224 tgl 15 0 empty empty empty 17 7 0 10 -262144 -1 -1
0 1;
#N canvas 2987 356 1922 886 meshtest 1;
#X obj 32 573 s osc;
#X obj 32 391 oscformat /world/mesh/create;
#X obj 22 17 inlet;
#X obj 106 455 oscformat /world/pooltable/size;
#X obj 126 414 bng 15 250 50 0 empty empty empty 17 7 0 10 -262144
-1 -1;
#X msg 108 436 0.6 0.5 0.2;
#X obj 123 493 oscformat /world/fixed/create boxhinge pooltable world
;
#X obj 508 339 s osc;
#X obj 268 21 bng 15 250 50 0 empty empty empty 17 7 0 10 -262144 -1
-1;
#X obj 260 56 bng 15 250 50 0 empty empty empty 17 7 0 10 -262144 -1
-1;
#X obj 260 98 bng 15 250 50 0 empty empty empty 17 7 0 10 -262144 -1
-1;
#X obj 510 193 oscformat /world/prism/create;
#X obj 509 253 oscformat /world/fixed/create;
#X msg 509 221 list boxhinge bottom world;
#X obj 508 307 oscformat /world/bottom/size;
#X obj 26 292 bng 15 250 50 0 empty empty empty 17 7 0 10 -262144 -1
-1;
#X msg 33 331 list pooltable /Users/marvin_burges/Documents/VirtuelleRealität/Dimple_prerelease/test/pooltable_smaller.3ds
0 0 -0.2;
#X text 508 135 Ground;
#X obj 702 338 s osc;
#X obj 704 192 oscformat /world/prism/create;
#X obj 703 252 oscformat /world/fixed/create;
#X obj 897 338 s osc;
#X obj 899 192 oscformat /world/prism/create;
#X obj 898 251 oscformat /world/fixed/create;
#X msg 702 219 list boxhinge side1 world;
#X obj 702 306 oscformat /world/side1/size;
#X msg 898 219 list boxhinge side2 world;
#X obj 897 306 oscformat /world/side2/size;
#X obj 1096 335 s osc;
#X obj 1098 189 oscformat /world/prism/create;
#X obj 1097 249 oscformat /world/fixed/create;
#X obj 1296 327 s osc;
#X obj 1298 181 oscformat /world/prism/create;
#X obj 1297 241 oscformat /world/fixed/create;
#X msg 1097 216 list boxhinge side3 world;
#X obj 1096 303 oscformat /world/side3/size;
#X obj 1296 295 oscformat /world/side4/size;
#X msg 1297 208 list boxhinge side4 world;
#X msg 1295 157 list side4 -0.27 0 -0.1;
#X msg 1095 163 list side3 0.27 0 -0.1;
#X msg 897 167 list side2 0 -0.2 -0.1;
#X msg 702 167 list side1 0 0.2 -0.1;
#X msg 1095 277 list 0.025 0.3 0.025;
#X msg 1295 269 list 0.025 0.3 0.025;
#X msg 701 280 list 0.45 0.05 0.025;
#X msg 896 280 list 0.45 0.05 0.025;
#X msg 510 168 list bottom 0 0 -0.16;
#X obj 506 567 s osc;
#X obj 508 421 oscformat /world/prism/create;
#X obj 507 481 oscformat /world/fixed/create;
#X obj 717 563 s osc;
#X obj 719 417 oscformat /world/prism/create;
#X obj 718 477 oscformat /world/fixed/create;
#X obj 926 561 s osc;
#X obj 928 415 oscformat /world/prism/create;
#X obj 927 475 oscformat /world/fixed/create;
#X obj 1138 561 s osc;
#X obj 1140 415 oscformat /world/prism/create;
#X obj 1139 475 oscformat /world/fixed/create;
#X msg 507 448 list boxhinge hole1 world;
#X obj 506 535 oscformat /world/hole1/size;
#X msg 718 444 list boxhinge hole2 world;
#X obj 717 531 oscformat /world/hole2/size;
#X msg 927 442 list boxhinge hole3 world;
#X obj 926 529 oscformat /world/hole3/size;
#X msg 1139 442 list boxhinge hole4 world;
#X obj 1138 529 oscformat /world/hole4/size;
#X msg 508 281 list 0.52 0.37 0.1;
#X msg 505 509 list 0.05 0.05 0.025;
#X msg 716 505 list 0.05 0.05 0.025;
#X msg 923 503 list 0.05 0.05 0.025;
#X msg 1137 503 list 0.05 0.05 0.025;
#X msg 504 396 list hole1 -0.27 -0.19 -0.15;
#X msg 714 393 list hole2 -0.27 0.19 -0.15;
#X msg 923 391 list hole3 0.27 -0.19 -0.15;
#X msg 1136 391 list hole4 0.27 0.19 -0.15;
#X obj 25 865 s osc;
#X obj 26 794 tgl 15 0 empty empty empty 17 7 0 10 -262144 -1 -1 1
1;
#X obj 26 814 * 30;
#X obj 26 839 oscformat /world/camera/position/get;
#X obj 1955 481 oscformat /world/sphere/create;
#X obj 1954 429 bng 15 250 50 0 empty empty empty 17 7 0 10 -262144
-1 -1;
#X obj 22 48 send inlet;
#X obj 33 700 s osc;
#X obj 1953 700 s osc;
#X obj 1955 528 oscformat;
#X obj 1955 574 oscformat;
#X obj 1102 724 oscformat /world/sphere/create;
#X obj 1101 672 bng 15 250 50 0 empty empty empty 17 7 0 10 -262144
-1 -1;
#X obj 1103 865 s osc;
#X obj 1102 771 oscformat;
#X obj 1102 817 oscformat;
#X obj 1321 722 oscformat /world/sphere/create;
#X obj 1320 670 bng 15 250 50 0 empty empty empty 17 7 0 10 -262144
-1 -1;
#X msg 1321 746 set /world/ball1/radius 0.01;
#X obj 1322 863 s osc;
#X obj 1321 769 oscformat;
#X obj 1321 815 oscformat;
#X obj 1531 721 oscformat /world/sphere/create;
#X obj 1530 669 bng 15 250 50 0 empty empty empty 17 7 0 10 -262144
-1 -1;
#X obj 1532 862 s osc;
#X obj 1531 768 oscformat;
#X obj 1531 814 oscformat;
#X obj 1734 717 oscformat /world/sphere/create;
#X obj 1733 665 bng 15 250 50 0 empty empty empty 17 7 0 10 -262144
-1 -1;
#X obj 1735 858 s osc;
#X obj 1734 764 oscformat;
#X obj 1734 810 oscformat;
#X msg 1955 454 list playball 0.2 0 0.2;
#X msg 1955 505 set /world/playball/radius 0.01;
#X msg 1321 791 set /world/ball1/mass 20;
#X msg 1955 550 set /world/playball/mass 20;
#X msg 1102 748 set /world/ball2/radius 0.01;
#X msg 1102 793 set /world/ball2/mass;
#X msg 1531 745 set /world/ball3/radius 0.01;
#X msg 1531 790 set /world/ball3/mass;
#X msg 1320 694 list ball1 -0.2 0 0.2;
#X msg 1102 696 list ball2 -0.2 0.02 0.2;
#X msg 1531 695 list ball3 -0.2 -0.02 0.2;
#X msg 1734 741 set /world/ball4/radius 0.01;
#X msg 1735 786 set /world/ball4/mass;
#X obj 1344 611 receive inlet;
#X msg 1734 691 list ball4 -0.2 -0.04 0.2;
#X obj 902 734 oscformat /world/sphere/create;
#X obj 901 682 bng 15 250 50 0 empty empty empty 17 7 0 10 -262144
-1 -1;
#X obj 903 875 s osc;
#X obj 902 781 oscformat;
#X obj 902 827 oscformat;
#X msg 902 708 list ball5 -0.2 0.04 0.2;
#X msg 902 758 set /world/ball5/radius 0.01;
#X msg 903 803 set /world/ball5/mass;
#X obj 990 1030 oscformat /world/sphere/create;
#X obj 989 978 bng 15 250 50 0 empty empty empty 17 7 0 10 -262144
-1 -1;
#X obj 991 1171 s osc;
#X obj 990 1077 oscformat;
#X obj 990 1123 oscformat;
#X obj 1209 1028 oscformat /world/sphere/create;
#X obj 1210 1169 s osc;
#X obj 1209 1075 oscformat;
#X obj 1209 1121 oscformat;
#X obj 1419 1027 oscformat /world/sphere/create;
#X obj 1420 1168 s osc;
#X obj 1419 1074 oscformat;
#X obj 1419 1120 oscformat;
#X obj 1622 1023 oscformat /world/sphere/create;
#X obj 1623 1164 s osc;
#X obj 1622 1070 oscformat;
#X obj 1622 1116 oscformat;
#X obj 1112 1309 oscformat /world/sphere/create;
#X obj 1111 1257 bng 15 250 50 0 empty empty empty 17 7 0 10 -262144
-1 -1;
#X obj 1113 1450 s osc;
#X obj 1112 1356 oscformat;
#X obj 1112 1402 oscformat;
#X obj 1322 1308 oscformat /world/sphere/create;
#X obj 1321 1256 bng 15 250 50 0 empty empty empty 17 7 0 10 -262144
-1 -1;
#X obj 1323 1449 s osc;
#X obj 1322 1355 oscformat;
#X obj 1322 1401 oscformat;
#X obj 1773 1303 oscformat /world/sphere/create;
#X obj 1772 1251 bng 15 250 50 0 empty empty empty 17 7 0 10 -262144
-1 -1;
#X obj 1774 1444 s osc;
#X obj 1773 1350 oscformat;
#X obj 1773 1396 oscformat;
#X obj 1164 1580 oscformat /world/sphere/create;
#X obj 1163 1528 bng 15 250 50 0 empty empty empty 17 7 0 10 -262144
-1 -1;
#X obj 1165 1721 s osc;
#X obj 1164 1627 oscformat;
#X obj 1164 1673 oscformat;
#X obj 1367 1576 oscformat /world/sphere/create;
#X obj 1366 1524 bng 15 250 50 0 empty empty empty 17 7 0 10 -262144
-1 -1;
#X obj 1368 1717 s osc;
#X obj 1367 1623 oscformat;
#X obj 1367 1669 oscformat;
#X obj 1275 1848 oscformat /world/sphere/create;
#X obj 1274 1796 bng 15 250 50 0 empty empty empty 17 7 0 10 -262144
-1 -1;
#X obj 1276 1989 s osc;
#X obj 1275 1895 oscformat;
#X obj 1275 1941 oscformat;
#X obj 1209 977 bng 15 250 50 0 empty empty empty 17 7 0 10 -262144
-1 -1;
#X obj 1419 979 bng 15 250 50 0 empty empty empty 17 7 0 10 -262144
-1 -1;
#X obj 1620 976 bng 15 250 50 0 empty empty empty 17 7 0 10 -262144
-1 -1;
#X obj 1274 927 receive inlet;
#X obj 1293 1217 receive inlet;
#X obj 1280 1488 receive inlet;
#X obj 1269 1762 receive inlet;
#X msg 990 1002 list ball6 -0.18 0.01 0.2;
#X msg 990 1054 set /world/ball6/radius 0.01;
#X msg 990 1099 set /world/ball6/mass;
#X msg 1208 1000 list ball7 -0.18 -0.01 0.2;
#X msg 1209 1052 set /world/ball7/radius 0.01;
#X msg 1208 1097 set /world/ball7/mass 20;
#X msg 1419 1001 list ball8 -0.18 -0.03 0.2;
#X msg 1419 1051 set /world/ball8/radius 0.01;
#X msg 1418 1096 set /world/ball8/mass;
#X msg 1622 997 list ball9 -0.18 0.03 0.2;
#X msg 1622 1047 set /world/ball9/radius 0.01;
#X msg 1622 1092 set /world/ball9/mass;
#X msg 1111 1281 list ball10 -0.16 -0.02 0.2;
#X msg 1112 1333 set /world/ball10/radius 0.01;
#X msg 1112 1378 set /world/ball10/mass 20;
#X msg 1322 1282 list ball11 -0.16 0 0.2;
#X msg 1323 1332 set /world/ball11/radius 0.01;
#X msg 1322 1377 set /world/ball11/mass;
#X msg 1773 1277 list ball12 -0.16 0.02 0.2;
#X msg 1773 1327 set /world/ball12/radius 0.01;
#X msg 1774 1372 set /world/ball12/mass;
#X msg 1164 1554 list ball13 -0.14 -0.01 0.2;
#X msg 1164 1604 set /world/ball13/radius 0.01;
#X msg 1164 1649 set /world/ball13/mass;
#X msg 1367 1549 list ball14 -0.14 0.01 0.2;
#X msg 1368 1600 set /world/ball14/radius 0.01;
#X msg 1368 1645 set /world/ball14/mass;
#X msg 1274 1821 list ball15 -0.12 0 0.2;
#X msg 1275 1872 set /world/ball15/radius 0.01;
#X msg 1276 1917 set /world/ball15/mass;
#X obj 26 769 loadbang inlet;
#X obj 25 895 r rosc;
#X obj 26 948 route world;
#X obj 26 972 route collide;
#X obj 26 923 route list;
#X msg 34 655 1;
#X obj 33 676 oscformat /world/collide;
#X obj 21 226 receive inlet;
#X obj 27 261 delay 1000;
#X obj 76 293 delay 1000;
#X obj 102 534 oscformat /world/cursor/collide 1;
#X obj 1522 175 oscformat /world/prism/create;
#X obj 1522 232 oscformat /world/stick/size;
#X obj 1524 278 oscformat /world/stick/mass;
#X msg 1523 257 2;
#X obj 1515 457 s osc;
#X msg 1522 209 0.25 0.015 0.015;
#X obj 1574 300 inlet;
#X obj 1955 620 oscformat;
#X msg 1955 596 set /world/playball/color 0 0 0;
#X obj 1570 372 receive inlet;
#X obj 1660 373 bng 15 250 50 0 empty empty empty 17 7 0 10 -262144
-1 -1;
#X obj 1570 430 oscformat /world/stick/color;
#X obj 1521 1429 oscformat /world/ball11/color;
#X obj 1521 1342 receive inlet;
#X obj 1521 1368 delay 500;
#X obj 1574 323 delay 100;
#X obj 1614 300 receive inlet;
#X msg 1522 152 list stick 0.2 0 0.24;
#X msg 1520 1400 1 0 1;
#X obj 1768 399 s osc;
#X floatatom 1765 349 5 0 1023 0 - - -;
#X obj 1768 377 oscformat /world/grab/stiffness;
#X obj 1542 347 oscformat /world/stick/grab;
#X obj 24 1004 route ball1 ball2 ball3 ball4 ball5 ball6 ball7 ball8
ball9 ball10 ball11 ball12 ball13 ball14 ball15 playball stick, f
116;
#X obj 368 1114 route ball1 ball2 ball3 ball4 ball5 ball6 ball7 ball8
ball9 ball10 ball11 ball12 ball13 ball14 ball15, f 102;
#X obj 404 1276 route side1 side2 side3 side4;
#X obj 600 1276 route hole1 hole2 hole3 hole4;
#X obj 33 1346 route ball1 ball2 ball3 ball4 ball5 ball6 ball7 ball8
ball9 ball10 ball11 ball12 ball13 ball14 ball15 playball, f 116;
#X obj 561 1186 send StickOnBallCollision;
#X obj 404 1313 send SideCollision;
#X obj 599 1310 send HoleCollision;
#X obj 33 1373 send BallOnBallCollision;
#X msg 1570 402 0 0 1;
#X obj 34 635 bng 15 250 50 0 empty empty empty 17 7 0 10 -262144 -1
-1;
#X obj 34 614 receive inlet;
#X obj 1765 326 inlet;
#X obj 512 671 openpanel;
#X obj 514 640 bng 15 250 50 0 empty empty empty 17 7 0 10 -262144
-1 -1;
#X obj 1953 651 oscformat /world/playball/response/spring 1 1;
#X obj 23 1420 receive StickOnBallCollision;
#X obj 215 1420 receive BallOnBallCollision;
#X obj 402 1419 receive SideCollision;
#X obj 555 1419 receive HoleCollision;
#X obj 563 1444 print HoleCollision;
#X obj 30 1444 print StickOnBallCollision;
#X obj 223 1445 print BallOnBallCollision;
#X obj 413 1445 print SideCollision;
#N canvas 0 50 450 300 KugelQeueLeicht 0;
#X obj 13 41 bng 15 250 50 0 empty empty empty 17 7 0 10 -262144 -1
-1;
#X floatatom 13 87 5 0 0 0 - - -;
#X text 6 1 kugel+kugel leicht;
#X obj 39 204 readsf~;
#X obj 40 234 dac~;
#X msg 12 156 open Kugel+Kugel_leicht1.wav \, start;
#X obj 38 132 bng 15 250 50 0 empty empty empty 17 7 0 10 -262144 -1
-1;
#X obj 13 132 bng 15 250 50 0 empty empty empty 17 7 0 10 -262144 -1
-1;
#X msg 39 177 open Kugel+Kugel_leicht2.wav \, start;
#X obj 13 63 random 2;
#X obj 13 109 route 0 1;
#X obj 13 18 inlet;
#X connect 0 0 9 0;
#X connect 1 0 10 0;
#X connect 3 0 4 0;
#X connect 3 0 4 1;
#X connect 5 0 3 0;
#X connect 6 0 8 0;
#X connect 7 0 5 0;
#X connect 8 0 3 0;
#X connect 9 0 1 0;
#X connect 10 0 7 0;
#X connect 10 1 6 0;
#X connect 11 0 0 0;
#X restore 212 1787 pd KugelQeueLeicht;
#N canvas 0 50 450 300 KugelLoch 0;
#X obj 11 44 bng 15 250 50 0 empty empty empty 17 7 0 10 -262144 -1
-1;
#X floatatom 11 90 5 0 0 0 - - -;
#X obj 33 222 readsf~;
#X obj 33 250 dac~;
#X obj 32 135 bng 15 250 50 0 empty empty empty 17 7 0 10 -262144 -1
-1;
#X obj 11 135 bng 15 250 50 0 empty empty empty 17 7 0 10 -262144 -1
-1;
#X text 7 5 kugel+loch;
#X obj 11 66 random 3;
#X obj 11 112 route 0 1 2;
#X obj 53 134 bng 15 250 50 0 empty empty empty 17 7 0 10 -262144 -1
-1;
#X msg 10 159 open Kugel+Loch1.wav \, start;
#X msg 33 179 open Kugel+Loch2.wav \, start;
#X msg 54 201 open Kugel+Loch3.wav \, start;
#X obj 11 20 inlet;
#X connect 0 0 7 0;
#X connect 1 0 8 0;
#X connect 2 0 3 0;
#X connect 2 0 3 1;
#X connect 4 0 11 0;
#X connect 5 0 10 0;
#X connect 7 0 1 0;
#X connect 8 0 5 0;
#X connect 8 1 4 0;
#X connect 8 2 9 0;
#X connect 9 0 12 0;
#X connect 10 0 2 0;
#X connect 11 0 2 0;
#X connect 12 0 2 0;
#X connect 13 0 0 0;
#X restore 555 1469 pd KugelLoch;
#X floatatom 215 1515 5 0 0 0 - - -;
#X obj 215 1536 route 0 1;
#X obj 215 1492 > 1;
#N canvas 0 50 450 300 KugelKugelLeicht 0;
#X obj 13 48 bng 15 250 50 0 empty empty empty 17 7 0 10 -262144 -1
-1;
#X floatatom 13 94 5 0 0 0 - - -;
#X text 9 4 kugel+kugel leicht;
#X obj 39 211 readsf~;
#X obj 40 241 dac~;
#X msg 12 163 open Kugel+Kugel_leicht1.wav \, start;
#X obj 38 139 bng 15 250 50 0 empty empty empty 17 7 0 10 -262144 -1
-1;
#X obj 13 139 bng 15 250 50 0 empty empty empty 17 7 0 10 -262144 -1
-1;
#X msg 39 184 open Kugel+Kugel_leicht2.wav \, start;
#X obj 13 70 random 2;
#X obj 13 116 route 0 1;
#X obj 13 20 inlet;
#X connect 0 0 9 0;
#X connect 1 0 10 0;
#X connect 3 0 4 0;
#X connect 3 0 4 1;
#X connect 5 0 3 0;
#X connect 6 0 8 0;
#X connect 7 0 5 0;
#X connect 8 0 3 0;
#X connect 9 0 1 0;
#X connect 10 0 7 0;
#X connect 10 1 6 0;
#X connect 11 0 0 0;
#X restore 215 1588 pd KugelKugelLeicht;
#N canvas 0 50 450 300 KugelKugelMittel 0;
#X obj 21 48 bng 15 250 50 0 empty empty empty 17 7 0 10 -262144 -1
-1;
#X floatatom 21 93 5 0 0 0 - - -;
#X obj 48 211 readsf~;
#X obj 48 240 dac~;
#X obj 47 138 bng 15 250 50 0 empty empty empty 17 7 0 10 -262144 -1
-1;
#X obj 21 139 bng 15 250 50 0 empty empty empty 17 7 0 10 -262144 -1
-1;
#X obj 21 70 random 2;
#X obj 21 115 route 0 1;
#X text 18 7 kugel+kugel mittel;
#X msg 21 162 open Kugel+Kugel_mittel1.wav \, start;
#X msg 47 184 open Kugel+Kugel_mittel2.wav \, start;
#X obj 21 23 inlet;
#X connect 0 0 6 0;
#X connect 1 0 7 0;
#X connect 2 0 3 0;
#X connect 2 0 3 1;
#X connect 4 0 10 0;
#X connect 5 0 9 0;
#X connect 6 0 1 0;
#X connect 7 0 5 0;
#X connect 7 1 4 0;
#X connect 9 0 2 0;
#X connect 10 0 2 0;
#X connect 11 0 0 0;
#X restore 240 1565 pd KugelKugelMittel;
#N canvas 0 50 450 300 KugelQeueMittel 0;
#X obj 13 50 bng 15 250 50 0 empty empty empty 17 7 0 10 -262144 -1
-1;
#X floatatom 13 96 5 0 0 0 - - -;
#X obj 35 228 readsf~;
#X obj 35 256 dac~;
#X obj 34 141 bng 15 250 50 0 empty empty empty 17 7 0 10 -262144 -1
-1;
#X obj 13 141 bng 15 250 50 0 empty empty empty 17 7 0 10 -262144 -1
-1;
#X obj 13 72 random 3;
#X obj 13 118 route 0 1 2;
#X obj 55 140 bng 15 250 50 0 empty empty empty 17 7 0 10 -262144 -1
-1;
#X text 9 7 kugel+queue mittel;
#X msg 12 165 open queue_kugel_mittel1.wav \, start;
#X msg 35 185 open queue_kugel_mittel2.wav \, start;
#X msg 56 207 open queue_kugel_mittel3.wav \, start;
#X obj 13 23 inlet;
#X connect 0 0 6 0;
#X connect 1 0 7 0;
#X connect 2 0 3 0;
#X connect 2 0 3 1;
#X connect 4 0 11 0;
#X connect 5 0 10 0;
#X connect 6 0 1 0;
#X connect 7 0 5 0;
#X connect 7 1 4 0;
#X connect 7 2 8 0;
#X connect 8 0 12 0;
#X connect 10 0 2 0;
#X connect 11 0 2 0;
#X connect 12 0 2 0;
#X connect 13 0 0 0;
#X restore 215 1685 pd KugelQeueMittel;
#N canvas 0 50 450 300 KugelQeueHart 0;
#X obj 16 44 bng 15 250 50 0 empty empty empty 17 7 0 10 -262144 -1
-1;
#X floatatom 16 89 5 0 0 0 - - -;
#X obj 43 207 readsf~;
#X obj 43 236 dac~;
#X obj 42 134 bng 15 250 50 0 empty empty empty 17 7 0 10 -262144 -1
-1;
#X obj 16 135 bng 15 250 50 0 empty empty empty 17 7 0 10 -262144 -1
-1;
#X obj 16 66 random 2;
#X obj 16 111 route 0 1;
#X text 13 4 kugel+queue hart;
#X msg 16 158 open queue_kugel_hart1.wav \, start;
#X msg 42 180 open queue_kugel_hart2.wav \, start;
#X obj 16 21 inlet;
#X connect 0 0 6 0;
#X connect 1 0 7 0;
#X connect 2 0 3 0;
#X connect 2 0 3 1;
#X connect 4 0 10 0;
#X connect 5 0 9 0;
#X connect 6 0 1 0;
#X connect 7 0 5 0;
#X connect 7 1 4 0;
#X connect 9 0 2 0;
#X connect 10 0 2 0;
#X connect 11 0 0 0;
#X restore 44 1586 pd KugelQeueHart;
#X floatatom 44 1543 5 0 0 0 - - -;
#X floatatom 402 1515 5 0 0 0 - - -;
#X obj 402 1536 route 0 1;
#X obj 402 1492 > 1;
#N canvas 0 50 450 300 KugelWandLeicht 0;
#X obj 14 43 bng 15 250 50 0 empty empty empty 17 7 0 10 -262144 -1
-1;
#X floatatom 14 89 5 0 0 0 - - -;
#X obj 36 221 readsf~;
#X obj 36 249 dac~;
#X obj 36 134 bng 15 250 50 0 empty empty empty 17 7 0 10 -262144 -1
-1;
#X obj 14 134 bng 15 250 50 0 empty empty empty 17 7 0 10 -262144 -1
-1;
#X obj 14 65 random 3;
#X obj 14 111 route 0 1 2;
#X obj 57 133 bng 15 250 50 0 empty empty empty 17 7 0 10 -262144 -1
-1;
#X text 11 5 kugel+wand leicht;
#X msg 14 158 open Kugel+Wand_leicht1.wav \, start;
#X msg 36 178 open Kugel+Wand_leicht2.wav \, start;
#X msg 57 200 open Kugel+Wand_leicht3.wav \, start;
#X obj 14 20 inlet;
#X connect 0 0 6 0;
#X connect 1 0 7 0;
#X connect 2 0 3 0;
#X connect 2 0 3 1;
#X connect 4 0 11 0;
#X connect 5 0 10 0;
#X connect 6 0 1 0;
#X connect 7 0 5 0;
#X connect 7 1 4 0;
#X connect 7 2 8 0;
#X connect 8 0 12 0;
#X connect 10 0 2 0;
#X connect 11 0 2 0;
#X connect 12 0 2 0;
#X connect 13 0 0 0;
#X restore 402 1579 pd KugelWandLeicht;
#N canvas 0 50 450 300 KugelWandHart 0;
#X obj 17 42 bng 15 250 50 0 empty empty empty 17 7 0 10 -262144 -1
-1;
#X floatatom 17 87 5 0 0 0 - - -;
#X obj 44 205 readsf~;
#X obj 44 234 dac~;
#X obj 43 132 bng 15 250 50 0 empty empty empty 17 7 0 10 -262144 -1
-1;
#X obj 17 133 bng 15 250 50 0 empty empty empty 17 7 0 10 -262144 -1
-1;
#X obj 17 64 random 2;
#X obj 17 109 route 0 1;
#X text 10 2 kugel+wand hart;
#X msg 17 156 open Kugel+Wand_hart1.wav \, start;
#X msg 43 178 open Kugel+Wand_hart2.wav \, start;
#X obj 17 17 inlet;
#X connect 0 0 6 0;
#X connect 1 0 7 0;
#X connect 2 0 3 0;
#X connect 2 0 3 1;
#X connect 4 0 10 0;
#X connect 5 0 9 0;
#X connect 6 0 1 0;
#X connect 7 0 5 0;
#X connect 7 1 4 0;
#X connect 9 0 2 0;
#X connect 10 0 2 0;
#X connect 11 0 0 0;
#X restore 427 1559 pd KugelWandHart;
#X floatatom 402 1470 5 0 0 0 - - -;
#X floatatom 215 1470 5 0 0 0 - - -;
#X floatatom 23 1500 5 0 0 0 - - -;
#X msg 87 1465 0.5;
#X msg 124 1465 1.5;
#X msg 163 1465 4;
#X obj 44 1521 > 3;
#X obj 44 1564 route 1;
#X obj 32 1609 expr $f1 \; if ($f1 >= 1 && $f1 <= 3 \, 1 \, 0);
#X obj 215 1663 route 1;
#X floatatom 215 1643 5 0 0 0 - - -;
#X obj 212 1765 route 1;
#X floatatom 212 1743 5 0 0 0 - - -;
#X obj 23 1709 expr $f1 \; if ($f1 < 1 && $f1 > 0.01 \, 1 \, 0);
#X msg 41 1464 0.009;
#X obj 338 959 send StickOnBallCollision;
#X connect 1 0 0 0;
#X connect 2 0 8 0;
#X connect 2 0 9 0;
#X connect 2 0 10 0;
#X connect 2 0 82 0;
#X connect 3 0 0 0;
#X connect 4 0 5 0;
#X connect 4 0 6 0;
#X connect 4 0 225 0;
#X connect 5 0 3 0;
#X connect 6 0 0 0;
#X connect 8 0 46 0;
#X connect 8 0 41 0;
#X connect 8 0 40 0;
#X connect 8 0 39 0;
#X connect 8 0 38 0;
#X connect 8 0 73 0;
#X connect 8 0 74 0;
#X connect 8 0 75 0;
#X connect 8 0 72 0;
#X connect 9 0 13 0;
#X connect 9 0 24 0;
#X connect 9 0 26 0;
#X connect 9 0 34 0;
#X connect 9 0 37 0;
#X connect 9 0 59 0;
#X connect 9 0 61 0;
#X connect 9 0 63 0;
#X connect 9 0 65 0;
#X connect 10 0 67 0;
#X connect 10 0 44 0;
#X connect 10 0 45 0;
#X connect 10 0 42 0;
#X connect 10 0 43 0;
#X connect 10 0 68 0;
#X connect 10 0 69 0;
#X connect 10 0 70 0;
#X connect 10 0 71 0;
#X connect 11 0 7 0;
#X connect 12 0 7 0;
#X connect 13 0 12 0;
#X connect 14 0 7 0;
#X connect 15 0 16 0;
#X connect 16 0 1 0;
#X connect 19 0 18 0;
#X connect 20 0 18 0;
#X connect 22 0 21 0;
#X connect 23 0 21 0;
#X connect 24 0 20 0;
#X connect 25 0 18 0;
#X connect 26 0 23 0;
#X connect 27 0 21 0;
#X connect 29 0 28 0;
#X connect 30 0 28 0;
#X connect 32 0 31 0;
#X connect 33 0 31 0;
#X connect 34 0 30 0;
#X connect 35 0 28 0;
#X connect 36 0 31 0;
#X connect 37 0 33 0;
#X connect 38 0 32 0;
#X connect 39 0 29 0;
#X connect 40 0 22 0;
#X connect 41 0 19 0;
#X connect 42 0 35 0;
#X connect 43 0 36 0;
#X connect 44 0 25 0;
#X connect 45 0 27 0;
#X connect 46 0 11 0;
#X connect 48 0 47 0;
#X connect 49 0 47 0;
#X connect 51 0 50 0;
#X connect 52 0 50 0;
#X connect 54 0 53 0;
#X connect 55 0 53 0;
#X connect 57 0 56 0;
#X connect 58 0 56 0;
#X connect 59 0 49 0;
#X connect 60 0 47 0;
#X connect 61 0 52 0;
#X connect 62 0 50 0;
#X connect 63 0 55 0;
#X connect 64 0 53 0;
#X connect 65 0 58 0;
#X connect 66 0 56 0;
#X connect 67 0 14 0;
#X connect 68 0 60 0;
#X connect 69 0 62 0;
#X connect 70 0 64 0;
#X connect 71 0 66 0;
#X connect 72 0 48 0;
#X connect 73 0 51 0;
#X connect 74 0 54 0;
#X connect 75 0 57 0;
#X connect 77 0 78 0;
#X connect 78 0 79 0;
#X connect 79 0 76 0;
#X connect 80 0 84 0;
#X connect 81 0 108 0;
#X connect 81 0 109 0;
#X connect 81 0 111 0;
#X connect 81 0 264 0;
#X connect 85 0 84 0;
#X connect 86 0 84 0;
#X connect 87 0 89 0;
#X connect 88 0 117 0;
#X connect 88 0 112 0;
#X connect 88 0 113 0;
#X connect 90 0 89 0;
#X connect 91 0 89 0;
#X connect 92 0 95 0;
#X connect 93 0 116 0;
#X connect 93 0 94 0;
#X connect 93 0 110 0;
#X connect 94 0 96 0;
#X connect 96 0 95 0;
#X connect 97 0 95 0;
#X connect 98 0 100 0;
#X connect 99 0 118 0;
#X connect 99 0 114 0;
#X connect 99 0 115 0;
#X connect 101 0 100 0;
#X connect 102 0 100 0;
#X connect 103 0 105 0;
#X connect 104 0 122 0;
#X connect 104 0 119 0;
#X connect 104 0 120 0;
#X connect 106 0 105 0;
#X connect 107 0 105 0;
#X connect 108 0 80 0;
#X connect 109 0 85 0;
#X connect 110 0 97 0;
#X connect 111 0 86 0;
#X connect 112 0 90 0;
#X connect 113 0 91 0;
#X connect 114 0 101 0;
#X connect 115 0 102 0;
#X connect 116 0 92 0;
#X connect 117 0 87 0;
#X connect 118 0 98 0;
#X connect 119 0 106 0;
#X connect 120 0 107 0;
#X connect 121 0 81 0;
#X connect 121 0 93 0;
#X connect 121 0 88 0;
#X connect 121 0 99 0;
#X connect 121 0 104 0;
#X connect 121 0 124 0;
#X connect 122 0 103 0;
#X connect 123 0 125 0;
#X connect 124 0 128 0;
#X connect 124 0 129 0;
#X connect 124 0 130 0;
#X connect 126 0 125 0;
#X connect 127 0 125 0;
#X connect 128 0 123 0;
#X connect 129 0 126 0;
#X connect 130 0 127 0;
#X connect 131 0 133 0;
#X connect 132 0 185 0;
#X connect 132 0 186 0;
#X connect 132 0 187 0;
#X connect 134 0 133 0;
#X connect 135 0 133 0;
#X connect 136 0 137 0;
#X connect 138 0 137 0;
#X connect 139 0 137 0;
#X connect 140 0 141 0;
#X connect 142 0 141 0;
#X connect 143 0 141 0;
#X connect 144 0 145 0;
#X connect 146 0 145 0;
#X connect 147 0 145 0;
#X connect 148 0 150 0;
#X connect 149 0 197 0;
#X connect 149 0 198 0;
#X connect 149 0 199 0;
#X connect 151 0 150 0;
#X connect 152 0 150 0;
#X connect 153 0 155 0;
#X connect 154 0 200 0;
#X connect 154 0 201 0;
#X connect 154 0 202 0;
#X connect 156 0 155 0;
#X connect 157 0 155 0;
#X connect 158 0 160 0;
#X connect 159 0 203 0;
#X connect 159 0 204 0;
#X connect 159 0 205 0;
#X connect 161 0 160 0;
#X connect 162 0 160 0;
#X connect 163 0 165 0;
#X connect 164 0 206 0;
#X connect 164 0 207 0;
#X connect 164 0 208 0;
#X connect 166 0 165 0;
#X connect 167 0 165 0;
#X connect 168 0 170 0;
#X connect 169 0 209 0;
#X connect 169 0 210 0;
#X connect 169 0 211 0;
#X connect 171 0 170 0;
#X connect 172 0 170 0;
#X connect 173 0 175 0;
#X connect 174 0 212 0;
#X connect 174 0 213 0;
#X connect 174 0 214 0;
#X connect 176 0 175 0;
#X connect 177 0 175 0;
#X connect 178 0 188 0;
#X connect 179 0 191 0;
#X connect 180 0 194 0;
#X connect 181 0 132 0;
#X connect 181 0 178 0;
#X connect 181 0 179 0;
#X connect 181 0 180 0;
#X connect 182 0 149 0;
#X connect 182 0 154 0;
#X connect 182 0 159 0;
#X connect 183 0 164 0;
#X connect 183 0 169 0;
#X connect 184 0 174 0;
#X connect 185 0 131 0;
#X connect 186 0 134 0;
#X connect 187 0 135 0;
#X connect 188 0 136 0;
#X connect 189 0 138 0;
#X connect 190 0 139 0;
#X connect 191 0 140 0;
#X connect 192 0 142 0;
#X connect 193 0 143 0;
#X connect 194 0 144 0;
#X connect 195 0 146 0;
#X connect 196 0 147 0;
#X connect 197 0 148 0;
#X connect 198 0 151 0;
#X connect 199 0 152 0;
#X connect 200 0 153 0;
#X connect 201 0 156 0;
#X connect 202 0 157 0;
#X connect 203 0 158 0;
#X connect 204 0 161 0;
#X connect 205 0 162 0;
#X connect 206 0 163 0;
#X connect 207 0 166 0;
#X connect 208 0 167 0;
#X connect 209 0 168 0;
#X connect 210 0 171 0;
#X connect 211 0 172 0;
#X connect 212 0 173 0;
#X connect 213 0 176 0;
#X connect 214 0 177 0;
#X connect 215 0 77 0;
#X connect 216 0 219 0;
#X connect 216 0 303 0;
#X connect 217 0 218 0;
#X connect 218 0 249 0;
#X connect 219 0 217 0;
#X connect 220 0 221 0;
#X connect 221 0 83 0;
#X connect 222 0 223 0;
#X connect 223 0 15 0;
#X connect 223 0 224 0;
#X connect 224 0 4 0;
#X connect 225 0 0 0;
#X connect 226 0 230 0;
#X connect 227 0 230 0;
#X connect 228 0 230 0;
#X connect 229 0 228 0;
#X connect 231 0 227 0;
#X connect 232 0 241 0;
#X connect 233 0 84 0;
#X connect 234 0 233 0;
#X connect 235 0 258 0;
#X connect 236 0 258 0;
#X connect 237 0 230 0;
#X connect 238 0 155 0;
#X connect 239 0 240 0;
#X connect 240 0 244 0;
#X connect 241 0 246 0;
#X connect 242 0 241 0;
#X connect 243 0 226 0;
#X connect 244 0 238 0;
#X connect 246 0 247 0;
#X connect 247 0 245 0;
#X connect 248 0 230 0;
#X connect 249 0 251 0;
#X connect 249 0 252 0;
#X connect 249 0 253 0;
#X connect 249 1 251 0;
#X connect 249 1 252 0;
#X connect 249 1 253 0;
#X connect 249 2 251 0;
#X connect 249 2 252 0;
#X connect 249 2 253 0;
#X connect 249 3 251 0;
#X connect 249 3 252 0;
#X connect 249 3 253 0;
#X connect 249 4 251 0;
#X connect 249 4 252 0;
#X connect 249 4 253 0;
#X connect 249 5 251 0;
#X connect 249 5 252 0;
#X connect 249 5 253 0;
#X connect 249 6 251 0;
#X connect 249 6 252 0;
#X connect 249 6 253 0;
#X connect 249 7 251 0;
#X connect 249 7 252 0;
#X connect 249 7 253 0;
#X connect 249 8 251 0;
#X connect 249 8 252 0;
#X connect 249 8 253 0;
#X connect 249 9 251 0;
#X connect 249 9 252 0;
#X connect 249 9 253 0;
#X connect 249 10 251 0;
#X connect 249 10 252 0;
#X connect 249 10 253 0;
#X connect 249 11 251 0;
#X connect 249 11 252 0;
#X connect 249 11 253 0;
#X connect 249 12 251 0;
#X connect 249 12 252 0;
#X connect 249 12 253 0;
#X connect 249 13 251 0;
#X connect 249 13 252 0;
#X connect 249 13 253 0;
#X connect 249 14 251 0;
#X connect 249 14 252 0;
#X connect 249 14 253 0;
#X connect 249 15 251 0;
#X connect 249 15 252 0;
#X connect 249 15 253 0;
#X connect 249 16 250 0;
#X connect 250 0 254 0;
#X connect 250 1 254 0;
#X connect 250 2 254 0;
#X connect 250 3 254 0;
#X connect 250 4 254 0;
#X connect 250 5 254 0;
#X connect 250 6 254 0;
#X connect 250 7 254 0;
#X connect 250 8 254 0;
#X connect 250 9 254 0;
#X connect 250 10 254 0;
#X connect 250 11 254 0;
#X connect 250 12 254 0;
#X connect 250 13 254 0;
#X connect 250 14 254 0;
#X connect 251 0 255 0;
#X connect 251 1 255 0;
#X connect 251 2 255 0;
#X connect 251 3 255 0;
#X connect 252 0 256 0;
#X connect 252 1 256 0;
#X connect 252 2 256 0;
#X connect 252 3 256 0;
#X connect 253 0 257 0;
#X connect 253 1 257 0;
#X connect 253 2 257 0;
#X connect 253 3 257 0;
#X connect 253 4 257 0;
#X connect 253 5 257 0;
#X connect 253 6 257 0;
#X connect 253 7 257 0;
#X connect 253 8 257 0;
#X connect 253 9 257 0;
#X connect 253 10 257 0;
#X connect 253 11 257 0;
#X connect 253 12 257 0;
#X connect 253 13 257 0;
#X connect 253 14 257 0;
#X connect 253 15 257 0;
#X connect 258 0 237 0;
#X connect 259 0 220 0;
#X connect 260 0 259 0;
#X connect 261 0 246 0;
#X connect 263 0 262 0;
#X connect 264 0 84 0;
#X connect 265 0 270 0;
#X connect 265 0 290 0;
#X connect 266 0 289 0;
#X connect 266 0 271 0;
#X connect 267 0 288 0;
#X connect 267 0 272 0;
#X connect 268 0 269 0;
#X connect 268 0 274 0;
#X connect 275 0 276 0;
#X connect 276 0 278 0;
#X connect 276 1 279 0;
#X connect 277 0 275 0;
#X connect 282 0 295 0;
#X connect 283 0 284 0;
#X connect 284 0 286 0;
#X connect 284 1 287 0;
#X connect 285 0 283 0;
#X connect 288 0 285 0;
#X connect 289 0 277 0;
#X connect 290 0 294 0;
#X connect 290 0 296 0;
#X connect 290 0 301 0;
#X connect 291 0 290 0;
#X connect 292 0 290 0;
#X connect 293 0 290 0;
#X connect 294 0 282 0;
#X connect 295 0 281 0;
#X connect 296 1 298 0;
#X connect 297 0 280 0;
#X connect 298 0 297 0;
#X connect 299 0 273 0;
#X connect 300 0 299 0;
#X connect 301 1 300 0;
#X connect 302 0 290 0;
#X restore 274 174 pd meshtest;
#N canvas 67 192 924 670 texturetest 0;
#X obj 29 81 t b b;
#X obj 29 410 s osc;
#X obj 337 37 bng 15 250 50 0 empty empty empty 17 7 0 10 -262144 -1
-1;
#X obj 66 361 oscformat /world/t1/texture/image;
#X msg 66 340 list ../textures/marble.png;
#X msg 67 273 list t1c t1 world;
#X obj 67 294 oscformat /world/fixed/create;
#X msg 67 212 1 0.3 0.01;
#X msg 65 145 list t1 0 -0.3 -0.2;
#X obj 65 166 oscformat /world/prism/create;
#X obj 337 74 t b b;
#X obj 337 403 s osc;
#X obj 375 287 oscformat /world/fixed/create;
#X msg 375 205 1 0.3 0.01;
#X obj 373 159 oscformat /world/prism/create;
#X obj 629 90 t b b;
#X obj 629 419 s osc;
#X obj 667 303 oscformat /world/fixed/create;
#X msg 667 221 1 0.3 0.01;
#X obj 665 175 oscformat /world/prism/create;
#X msg 373 138 list t2 0 0 -0.2;
#X msg 375 266 list t2c t2 world;
#X msg 374 333 list ../textures/grainy.png;
#X obj 374 354 oscformat /world/t2/texture/image;
#X msg 665 154 list t3 0 0.3 -0.2;
#X msg 667 282 list t3c t3 world;
#X obj 666 370 oscformat /world/t3/texture/image;
#X msg 666 349 list ../textures/bumpy.png;
#X obj 337 12 inlet;
#X obj 375 226 oscformat /world/t2/size;
#X obj 67 233 oscformat /world/t1/size;
#X obj 667 242 oscformat /world/t3/size;
#X obj 407 452 inlet;
#X floatatom 407 479 5 0 0 0 - - -;
#X obj 146 529 s osc;
#X obj 407 529 s osc;
#X obj 659 528 s osc;
#X obj 146 506 oscformat /world/t1/texture/level;
#X obj 407 506 oscformat /world/t2/texture/level;
#X obj 659 505 oscformat /world/t3/texture/level;
#X obj 11 441 bng 15 250 50 0 empty empty empty 17 7 0 10 -262144 -1
-1;
#X obj 318 439 bng 15 250 50 0 empty empty empty 17 7 0 10 -262144
-1 -1;
#X obj 600 442 bng 15 250 50 0 empty empty empty 17 7 0 10 -262144
-1 -1;
#X obj 467 422 loadbang;
#X msg 467 445 1;
#X connect 0 0 4 0;
#X connect 0 0 5 0;
#X connect 0 0 7 0;
#X connect 0 0 40 0;
#X connect 0 1 8 0;
#X connect 2 0 0 0;
#X connect 2 0 10 0;
#X connect 2 0 15 0;
#X connect 3 0 1 0;
#X connect 4 0 3 0;
#X connect 5 0 6 0;
#X connect 6 0 1 0;
#X connect 7 0 30 0;
#X connect 8 0 9 0;
#X connect 9 0 1 0;
#X connect 10 0 22 0;
#X connect 10 0 21 0;
#X connect 10 0 13 0;
#X connect 10 0 41 0;
#X connect 10 1 20 0;
#X connect 12 0 11 0;
#X connect 13 0 29 0;
#X connect 14 0 11 0;
#X connect 15 0 27 0;
#X connect 15 0 25 0;
#X connect 15 0 18 0;
#X connect 15 0 42 0;
#X connect 15 1 24 0;
#X connect 17 0 16 0;
#X connect 18 0 31 0;
#X connect 19 0 16 0;
#X connect 20 0 14 0;
#X connect 21 0 12 0;
#X connect 22 0 23 0;
#X connect 23 0 11 0;
#X connect 24 0 19 0;
#X connect 25 0 17 0;
#X connect 26 0 16 0;
#X connect 27 0 26 0;
#X connect 28 0 2 0;
#X connect 29 0 11 0;
#X connect 30 0 1 0;
#X connect 31 0 16 0;
#X connect 32 0 33 0;
#X connect 33 0 37 0;
#X connect 33 0 38 0;
#X connect 33 0 39 0;
#X connect 37 0 34 0;
#X connect 38 0 35 0;
#X connect 39 0 36 0;
#X connect 40 0 33 0;
#X connect 41 0 33 0;
#X connect 42 0 33 0;
#X connect 43 0 44 0;
#X connect 44 0 33 0;
#X restore 1075 353 pd texturetest;
#X obj 1075 332 bng 15 250 50 0 empty empty empty 17 7 0 10 -262144
-1 -1;
#N canvas 180 273 313 351 cuberoom 0;
#X obj 20 10 inlet;
#X obj 20 34 bng 15 250 50 0 empty empty empty 17 7 0 10 -262144 -1
-1;
#N canvas 208 89 538 814 createroom 0;
#X obj 34 18 inlet;
#X obj 34 130 / 2;
#X obj 34 165 -;
#X floatatom 34 195 5 0 0 0 - - -;
#X obj 70 130 / 2;
#X obj 70 165 -;
#X floatatom 70 195 5 0 0 0 - - -;
#X floatatom 178 195 5 0 0 0 - - -;
#X obj 34 98 unpack 0 0 0 0 0;
#X obj 106 130 / 2;
#X obj 106 165 +;
#X floatatom 106 195 5 0 0 0 - - -;
#X obj 142 129 / 2;
#X obj 142 165 +;
#X floatatom 142 195 5 0 0 0 - - -;
#X obj 178 128 / 2;
#X obj 10 98 bng 15 250 50 0 empty empty empty 17 7 0 10 -262144 -1
-1;
#X obj 70 219 * -1;
#X obj 34 219 * -1;
#X obj 10 281 t l l l;
#X obj 34 46 bng 15 250 50 0 empty empty empty 17 7 0 10 -262144 -1
-1;
#X text 57 43 bang to create box;
#X obj 10 257 pack 0 0 0 0 0 0 0 0 0 0 0 0 0 0;
#X obj 187 232 +;
#X floatatom 212 250 5 0 0 0 - - -;
#X obj 192 212 * 1;
#X msg 33 70 2 1 1 0.03 0.03;
#X obj 299 767 s osc;
#X msg 299 613 0.7 0.9 0.15;
#X obj 280 613 bng 15 250 50 0 empty empty empty 17 7 0 10 -262144
-1 -1;
#X msg 47 303 list leftside 0 \$7 \$9;
#X msg 47 324 list rightside 0 \$6 \$9;
#X msg 47 347 list backside \$4 0 \$9;
#X msg 47 368 list frontside \$3 0 \$9;
#X msg 47 389 list bottom 0 0 \$13;
#X msg 47 410 list top 0 0 \$14;
#X obj 47 435 oscformat /world/prism/create;
#X obj 233 435 s osc;
#X obj 159 568 s osc;
#X msg 28 459 list fix1 leftside world;
#X msg 28 480 list fix2 rightside world;
#X msg 28 501 list fix3 backside world;
#X msg 28 522 list fix4 frontside world;
#X msg 28 544 list boxhinge bottom world;
#X msg 28 567 list fix5 top world;
#X obj 28 591 oscformat /world/fixed/create;
#X obj 88 743 s osc;
#X msg 10 613 \$2 \$5 \$12;
#X msg 10 634 \$2 \$12 \$8;
#X msg 10 655 \$2 \$12 \$8;
#X msg 10 676 \$12 \$5 \$8;
#X msg 10 697 \$12 \$5 \$8;
#X msg 10 720 \$2 \$5 \$12;
#X obj 88 613 oscformat /world/bottom/size;
#X obj 88 634 oscformat /world/leftside/size;
#X obj 88 655 oscformat /world/rightside/size;
#X obj 88 676 oscformat /world/backside/size;
#X obj 88 697 oscformat /world/frontside/size;
#X obj 88 720 oscformat /world/top/size;
#X obj 299 638 oscformat /world/bottom/color;
#X obj 299 659 oscformat /world/leftside/color;
#X obj 299 680 oscformat /world/rightside/color;
#X obj 299 701 oscformat /world/backside/color;
#X obj 299 722 oscformat /world/frontside/color;
#X obj 299 745 oscformat /world/top/color;
#X connect 0 0 20 0;
#X connect 1 0 2 0;
#X connect 2 0 3 0;
#X connect 3 0 18 0;
#X connect 3 0 22 2;
#X connect 4 0 5 0;
#X connect 5 0 6 0;
#X connect 6 0 17 0;
#X connect 6 0 22 5;
#X connect 7 0 22 12;
#X connect 7 0 25 0;
#X connect 8 0 1 0;
#X connect 8 0 22 1;
#X connect 8 1 4 0;
#X connect 8 1 22 4;
#X connect 8 2 9 0;
#X connect 8 2 22 7;
#X connect 8 2 23 0;
#X connect 8 3 12 0;
#X connect 8 3 22 9;
#X connect 8 4 15 0;
#X connect 8 4 22 11;
#X connect 9 0 10 0;
#X connect 10 0 11 0;
#X connect 11 0 22 8;
#X connect 12 0 13 0;
#X connect 13 0 14 0;
#X connect 14 0 22 10;
#X connect 15 0 13 1;
#X connect 15 0 10 1;
#X connect 15 0 5 1;
#X connect 15 0 2 1;
#X connect 15 0 7 0;
#X connect 16 0 22 0;
#X connect 17 0 22 6;
#X connect 18 0 22 3;
#X connect 19 0 47 0;
#X connect 19 0 48 0;
#X connect 19 0 49 0;
#X connect 19 0 50 0;
#X connect 19 0 51 0;
#X connect 19 0 52 0;
#X connect 19 1 39 0;
#X connect 19 1 40 0;
#X connect 19 1 41 0;
#X connect 19 1 42 0;
#X connect 19 1 43 0;
#X connect 19 1 44 0;
#X connect 19 1 29 0;
#X connect 19 2 32 0;
#X connect 19 2 34 0;
#X connect 19 2 35 0;
#X connect 19 2 30 0;
#X connect 19 2 31 0;
#X connect 19 2 33 0;
#X connect 20 0 26 0;
#X connect 22 0 19 0;
#X connect 23 0 22 13;
#X connect 23 0 24 0;
#X connect 25 0 23 1;
#X connect 26 0 8 0;
#X connect 26 0 16 0;
#X connect 28 0 60 0;
#X connect 28 0 61 0;
#X connect 28 0 62 0;
#X connect 28 0 63 0;
#X connect 28 0 64 0;
#X connect 28 0 59 0;
#X connect 29 0 28 0;
#X connect 30 0 36 0;
#X connect 31 0 36 0;
#X connect 32 0 36 0;
#X connect 33 0 36 0;
#X connect 34 0 36 0;
#X connect 35 0 36 0;
#X connect 36 0 37 0;
#X connect 39 0 45 0;
#X connect 40 0 45 0;
#X connect 41 0 45 0;
#X connect 42 0 45 0;
#X connect 43 0 45 0;
#X connect 44 0 45 0;
#X connect 45 0 38 0;
#X connect 47 0 53 0;
#X connect 48 0 54 0;
#X connect 49 0 55 0;
#X connect 50 0 56 0;
#X connect 51 0 57 0;
#X connect 52 0 58 0;
#X connect 53 0 46 0;
#X connect 54 0 46 0;
#X connect 55 0 46 0;
#X connect 56 0 46 0;
#X connect 57 0 46 0;
#X connect 58 0 46 0;
#X connect 59 0 27 0;
#X connect 60 0 27 0;
#X connect 61 0 27 0;
#X connect 62 0 27 0;
#X connect 63 0 27 0;
#X connect 64 0 27 0;
#X restore 20 57 pd createroom;
#N canvas 73 179 530 320 xbyxbyx 0;
#X obj 65 147 until;
#X obj 65 175 f;
#X obj 96 177 + 1;
#X obj 140 177 sel 0;
#X obj 96 198 mod 10;
#X obj 185 148 until;
#X obj 185 176 f;
#X obj 216 178 + 1;
#X obj 260 178 sel 0;
#X obj 216 199 mod 10;
#X msg 159 148 0;
#X obj 155 89 t b b;
#X obj 33 86 t b b;
#X msg 31 143 0;
#X obj 51 200 t f f;
#X obj 185 121 f;
#X obj 63 120 f;
#X obj 33 28 t b l;
#X obj 33 5 inlet;
#X obj 65 276 outlet;
#X obj 68 57 unpack 0 0 0;
#X obj 330 150 until;
#X obj 330 178 f;
#X obj 361 180 + 1;
#X obj 405 180 sel 0;
#X obj 361 201 mod 10;
#X msg 304 150 0;
#X obj 300 91 t b b;
#X obj 330 123 f;
#X obj 183 223 t f f;
#X obj 66 252 pack 0 0 0;
#X connect 0 0 1 0;
#X connect 1 0 2 0;
#X connect 1 0 14 0;
#X connect 2 0 4 0;
#X connect 3 0 0 1;
#X connect 4 0 1 1;
#X connect 4 0 3 0;
#X connect 5 0 6 0;
#X connect 6 0 7 0;
#X connect 6 0 29 0;
#X connect 7 0 9 0;
#X connect 8 0 5 1;
#X connect 9 0 6 1;
#X connect 9 0 8 0;
#X connect 10 0 6 1;
#X connect 11 0 15 0;
#X connect 11 1 10 0;
#X connect 12 0 16 0;
#X connect 12 1 13 0;
#X connect 13 0 1 1;
#X connect 14 0 11 0;
#X connect 15 0 5 0;
#X connect 16 0 0 0;
#X connect 17 0 12 0;
#X connect 17 1 20 0;
#X connect 18 0 17 0;
#X connect 20 0 16 1;
#X connect 20 1 15 1;
#X connect 20 2 28 1;
#X connect 21 0 22 0;
#X connect 22 0 23 0;
#X connect 22 0 30 0;
#X connect 23 0 25 0;
#X connect 24 0 21 1;
#X connect 25 0 22 1;
#X connect 25 0 24 0;
#X connect 26 0 22 1;
#X connect 27 0 28 0;
#X connect 27 1 26 0;
#X connect 28 0 21 0;
#X connect 29 0 27 0;
#X connect 29 1 30 1;
#X connect 30 0 19 0;
#X restore 21 119 pd xbyxbyx;
#X obj 55 147 unpack 0 0 0;
#X obj 35 256 pack 0 0 0 0 0 0;
#X obj 217 199 + 0.1;
#X obj 179 199 + 0.1;
#X obj 141 199 + 0.1;
#X obj 103 199 + 0.1;
#X obj 67 199 + 0.1;
#X obj 29 199 + 0.1;
#X obj 141 175 / 25;
#X obj 179 175 / 25;
#X obj 217 175 / 25;
#X msg 21 90 10 10 10;
#X obj 22 298 oscformat /world/prism/create;
#X msg 22 276 list cube_\$3_\$2_\$1 \$6 \$5 \$4;
#X obj 22 321 s osc;
#X connect 0 0 1 0;
#X connect 1 0 2 0;
#X connect 3 0 4 0;
#X connect 4 0 11 0;
#X connect 4 0 12 0;
#X connect 4 1 10 0;
#X connect 4 1 13 0;
#X connect 4 2 9 0;
#X connect 4 2 14 0;
#X connect 5 0 17 0;
#X connect 6 0 5 5;
#X connect 7 0 5 4;
#X connect 8 0 5 3;
#X connect 9 0 5 2;
#X connect 10 0 5 1;
#X connect 11 0 5 0;
#X connect 12 0 8 0;
#X connect 13 0 7 0;
#X connect 14 0 6 0;
#X connect 15 0 3 0;
#X connect 16 0 18 0;
#X connect 17 0 16 0;
#X restore 1167 354 pd cuberoom;
#X floatatom 1168 616 5 0 0 0 - - -;
#X obj 268 278 bng 15 250 50 0 empty empty empty 17 7 0 10 -262144
-1 -1;
#X obj 117 186 / -100;
#X msg 117 208 0 0 \$1;
#X obj 117 229 oscformat /world/gravity;
#X obj 1688 560 s osc;
#X floatatom 1688 514 5 0 0 0 - - -;
#X text 1426 333 MarbleBox;
#X text 1728 514 Set the maximum stiffness if necessary;
#X obj 1666 515 bng 15 250 50 0 empty empty empty 17 7 0 10 -262144
-1 -1;
#X text 1206 616 freq;
#X obj 274 154 bng 15 250 50 0 empty empty empty 17 7 0 10 -262144
-1 -1;
#X obj 1688 537 oscformat /world/stiffness;
#X text 1127 177 Other demonstrations:;
#X floatatom 1131 331 5 0 0 0 - - -;
#X obj 305 154 bng 15 250 50 0 empty empty empty 17 7 0 10 -262144
-1 -1;
#X msg 117 145 50;
#X floatatom 337 154 5 0 0 0 - - -;
#X text 117 98 Step 2:;
#X text 274 93 Step 3:;
#X text 273 105 Left: Create pooltable \, balls and stick;
#X text 273 119 Middle: Grab stick/ Ungrab stick;
#X text 273 134 Right: Set grabbing stiffness;
#X obj 117 126 bng 15 250 50 0 empty empty empty 17 7 0 10 -262144
-1 -1;
#X connect 0 0 1 0;
#X connect 2 0 11 0;
#X connect 3 0 2 0;
#X connect 6 0 61 0;
#X connect 9 0 8 0;
#X connect 13 0 12 0;
#X connect 15 0 14 0;
#X connect 18 0 11 1;
#X connect 19 0 22 0;
#X connect 19 1 21 0;
#X connect 20 0 19 0;
#X connect 34 0 33 0;
#X connect 37 0 36 0;
#X connect 40 0 41 0;
#X connect 48 0 47 0;
#X connect 49 0 47 0;
#X connect 50 0 47 0;
#X connect 52 0 51 0;
#X connect 54 0 51 1;
#X connect 57 0 56 0;
#X connect 59 0 17 1;
#X connect 60 0 0 0;
#X connect 61 0 62 0;
#X connect 62 0 63 0;
#X connect 63 0 1 0;
#X connect 65 0 71 0;
#X connect 68 0 65 0;
#X connect 70 0 55 0;
#X connect 71 0 64 0;
#X connect 73 0 56 1;
#X connect 74 0 55 1;
#X connect 75 0 6 0;
#X connect 76 0 55 2;
#X connect 82 0 75 0;
